<svg width="165" height="234" viewBox="0 0 165 234" fill="none" xmlns="http://www.w3.org/2000/svg">
<path d="M124.499 2.68461C124.202 2.35249 123.879 2.04878 123.531 1.77484C121.085 -0.151823 117.432 -0.605855 113.352 0.888536L13.3355 37.5183C5.97053 40.2157 0 48.2394 0 55.4399V220.04C0 222.684 0.805055 224.849 2.18859 226.397C2.48539 226.729 2.80881 227.033 3.15661 227.307C5.60278 229.234 9.25515 229.688 13.3355 228.193L113.352 191.563C120.717 188.866 126.688 180.842 126.688 173.642V9.04217C126.688 6.39813 125.883 4.23277 124.499 2.68461Z" fill="url(#paint0_linear_2071_908)"/>
<path d="M119.594 196.482C126.959 193.785 132.929 185.761 132.929 178.56L126.688 173.642C126.688 180.843 120.717 188.866 113.352 191.564L119.594 196.482Z" fill="url(#paint1_linear_2071_908)"/>
<path d="M19.5771 233.111L119.594 196.482L113.352 191.563L13.3356 228.193L19.5771 233.111Z" fill="url(#paint2_linear_2071_908)"/>
<path d="M9.39807 232.225C11.8442 234.152 15.4966 234.606 19.577 233.112L13.3355 228.193C9.25506 229.688 5.60269 229.234 3.15652 227.307L9.39807 232.225Z" fill="url(#paint3_linear_2071_908)"/>
<path d="M8.43036 231.315C8.72641 231.646 9.04895 231.949 9.39575 232.223L3.15684 227.307C2.80903 227.033 2.48561 226.729 2.18881 226.397L8.43036 231.315Z" fill="url(#paint4_linear_2071_908)"/>
<path d="M6.24155 224.958C6.24155 227.602 7.0466 229.767 8.43014 231.315L2.18859 226.397C0.805055 224.849 0 222.684 0 220.04L6.24155 224.958Z" fill="url(#paint5_linear_2071_908)"/>
<path d="M132.929 172.128V15.4743C132.929 14.5182 132.491 13.6149 131.74 13.0231C129.693 11.4101 126.688 12.8682 126.688 15.4743V172.128C126.688 173.084 127.126 173.987 127.877 174.579C129.924 176.192 132.929 174.734 132.929 172.128Z" fill="url(#paint6_linear_2071_908)"/>
<path d="M6.24155 60.3582V224.958L0 220.04V55.4399L6.24155 60.3582Z" fill="url(#paint7_linear_2071_908)"/>
<path d="M131.027 7.94272C130.947 7.84207 130.865 7.74373 130.78 7.64771C130.754 7.6177 130.725 7.59035 130.693 7.56561L129.681 6.768C129.128 6.33246 126.666 8.01876 126.684 8.72226C126.688 8.89863 126.768 9.10586 126.907 9.21505L127.877 9.97924C129.924 11.5922 132.649 9.98274 131.027 7.94272Z" fill="url(#paint8_linear_2071_908)"/>
<path d="M124.546 2.72185L129.696 6.77965C129.807 6.86746 129.884 6.78091 129.773 6.69313L123.534 1.77697C123.865 2.03805 124.174 2.32612 124.459 2.64003C124.486 2.66962 124.515 2.69711 124.546 2.72185Z" fill="url(#paint9_linear_2071_908)"/>
<path d="M129.773 6.69307C127.326 4.7664 123.674 4.31237 119.594 5.80676L113.352 0.888536C117.433 -0.605855 121.085 -0.151823 123.531 1.77484L129.773 6.69307Z" fill="url(#paint10_linear_2071_908)"/>
<path d="M119.594 5.8069L19.5771 42.4367L13.3356 37.5185L113.352 0.888672L119.594 5.8069Z" fill="url(#paint11_linear_2071_908)"/>
<path d="M6.24155 60.3579C6.24155 53.1574 12.2121 45.1336 19.5771 42.4363L13.3355 37.5181C5.97053 40.2154 0 48.2392 0 55.4396L6.24155 60.3579Z" fill="url(#paint12_linear_2071_908)"/>
<path d="M130.744 6.45902C128.36 3.79109 124.258 2.95608 119.598 4.66295L19.581 41.2927C12.2159 43.9901 6.24542 52.0138 6.24542 59.2143V223.814C6.24542 226.458 7.05048 228.623 8.43401 230.172C10.8182 232.84 14.9204 233.675 19.581 231.968L119.598 195.338C126.963 192.641 132.933 184.617 132.933 177.416V12.8166C132.933 10.1725 132.128 8.00718 130.744 6.45902Z" fill="url(#paint13_linear_2071_908)"/>
<path d="M130.744 6.45902C128.36 3.79109 124.258 2.95608 119.598 4.66295L19.581 41.2927C12.2159 43.9901 6.24542 52.0138 6.24542 59.2143V223.814C6.24542 226.458 7.05048 228.623 8.43401 230.172C10.8182 232.84 14.9204 233.675 19.581 231.968L119.598 195.338C126.963 192.641 132.933 184.617 132.933 177.416V12.8166C132.933 10.1725 132.128 8.00718 130.744 6.45902Z" fill="url(#paint14_linear_2071_908)"/>
<rect width="17.8052" height="86.3347" rx="8.9026" transform="matrix(0.885999 -0.463688 0 1 63.4952 108.744)" fill="url(#paint15_linear_2071_908)"/>
<path d="M107.755 125.63C110.836 124.445 113.56 125.045 115.064 126.922C115.821 127.866 116.269 129.134 116.298 130.659C116.386 135.218 112.703 140.358 108.073 142.14L37.1693 169.422C34.0891 170.607 31.3655 170.007 29.8611 168.131C29.1041 167.187 28.6558 165.919 28.6264 164.393C28.5387 159.834 32.2211 154.694 36.8514 152.912L107.755 125.63Z" fill="url(#paint16_linear_2071_908)"/>
<path d="M119.698 156.644C124.328 154.862 128.01 149.722 127.923 145.163L116.298 130.659C116.386 135.218 112.703 140.358 108.073 142.14L119.698 156.644Z" fill="url(#paint17_linear_2071_908)"/>
<path d="M126.689 141.426C127.445 142.37 127.893 143.637 127.923 145.163L116.298 130.659C116.269 129.134 115.821 127.866 115.064 126.922L126.689 141.426Z" fill="url(#paint18_linear_2071_908)"/>
<path d="M48.7942 183.925L119.698 156.644L108.073 142.14L37.1693 169.422L48.7942 183.925Z" fill="url(#paint19_linear_2071_908)"/>
<path d="M119.38 140.134C122.46 138.949 125.183 139.548 126.688 141.424L115.064 126.922C113.56 125.045 110.836 124.445 107.755 125.63L119.38 140.134Z" fill="url(#paint20_linear_2071_908)"/>
<path d="M41.486 182.635C42.9903 184.511 45.714 185.111 48.7942 183.925L37.1693 169.422C34.0891 170.607 31.3655 170.007 29.8611 168.131L41.486 182.635Z" fill="url(#paint21_linear_2071_908)"/>
<path d="M119.38 140.134L48.4763 167.416L36.8514 152.912L107.755 125.63L119.38 140.134Z" fill="url(#paint22_linear_2071_908)"/>
<path d="M40.2512 178.896C40.2806 180.422 40.7284 181.689 41.485 182.634L29.8611 168.131C29.1041 167.187 28.6558 165.919 28.6264 164.393L40.2512 178.896Z" fill="url(#paint23_linear_2071_908)"/>
<path d="M48.4763 167.416C43.846 169.197 40.1634 174.337 40.2512 178.896L28.6264 164.393C28.5387 159.834 32.2211 154.694 36.8514 152.912L48.4763 167.416Z" fill="url(#paint24_linear_2071_908)"/>
<path d="M119.38 140.134C124.01 138.352 127.835 140.604 127.923 145.163C128.01 149.722 124.328 154.862 119.698 156.644L48.7942 183.925C44.1639 185.707 40.339 183.455 40.2512 178.896C40.1634 174.337 43.846 169.197 48.4763 167.416L119.38 140.134Z" fill="url(#paint25_linear_2071_908)"/>
<path d="M63.4952 117.151C63.4952 112.591 67.0267 107.047 71.3829 104.767C74.5766 103.096 77.327 103.643 78.5675 105.851C79.0191 106.654 79.2706 107.678 79.2706 108.895V178.718C79.2706 183.277 75.7392 188.822 71.3829 191.102C68.1892 192.773 65.4389 192.226 64.1983 190.018C63.7467 189.214 63.4952 188.191 63.4952 186.974V117.151Z" fill="url(#paint26_linear_2071_908)"/>
<path d="M77.1936 213.137C78.4341 215.345 81.1845 215.893 84.3782 214.221L71.3829 191.102C68.1899 192.773 65.4398 192.226 64.1989 190.019L77.1936 213.137Z" fill="url(#paint27_linear_2071_908)"/>
<path d="M84.3782 214.221C88.7344 211.941 92.266 206.397 92.266 201.837L79.2706 178.718C79.2706 183.277 75.7392 188.822 71.3829 191.102L84.3782 214.221Z" fill="url(#paint28_linear_2071_908)"/>
<path d="M76.4907 210.093C76.4907 211.31 76.742 212.334 77.1936 213.137L64.1983 190.018C63.7467 189.214 63.4952 188.191 63.4952 186.974L76.4907 210.093Z" fill="url(#paint29_linear_2071_908)"/>
<path d="M76.4907 140.271V210.093L63.4952 186.974V117.151L76.4907 140.271Z" fill="url(#paint30_linear_2071_908)"/>
<path d="M92.266 201.837L92.2659 132.015L79.2706 108.895V178.718L92.266 201.837Z" fill="url(#paint31_linear_2071_908)"/>
<path d="M92.2659 132.015C92.2659 130.798 92.0145 129.774 91.563 128.97L78.5675 105.851C79.0191 106.654 79.2706 107.678 79.2706 108.895L92.2659 132.015Z" fill="url(#paint32_linear_2071_908)"/>
<path d="M76.4907 140.271C76.4907 135.711 80.0221 130.166 84.3784 127.887L71.3829 104.767C67.0267 107.047 63.4952 112.591 63.4952 117.151L76.4907 140.271Z" fill="url(#paint33_linear_2071_908)"/>
<path d="M91.5621 128.969C90.3212 126.762 87.5714 126.215 84.3784 127.887L71.3829 104.767C74.5766 103.096 77.327 103.643 78.5675 105.851L91.5621 128.969Z" fill="url(#paint34_linear_2071_908)"/>
<path d="M76.4907 140.271C76.4907 135.711 80.0221 130.166 84.3784 127.887C88.7346 125.607 92.2659 127.455 92.2659 132.015L92.266 201.837C92.266 206.397 88.7344 211.941 84.3782 214.221C80.0219 216.501 76.4907 214.653 76.4907 210.093V140.271Z" fill="url(#paint35_linear_2071_908)"/>
<rect width="16.5126" height="93.9375" rx="8.25632" transform="matrix(0.0192525 0.999815 -0.933296 0.359107 114.735 123.133)" fill="url(#paint36_linear_2071_908)"/>
<rect width="16.5126" height="93.9375" rx="8.25632" transform="matrix(0.0192525 0.999815 -0.933296 0.359107 112.653 25.9478)" fill="url(#paint37_linear_2071_908)"/>
<rect width="9.77002" height="93.9375" rx="4.88501" transform="matrix(0.0192525 0.999815 -0.933296 0.359107 113.694 55.1978)" fill="url(#paint38_linear_2071_908)"/>
<path d="M108.884 57.4578C110.201 56.9421 111.389 56.9692 112.26 57.4302C113.193 57.9244 113.762 58.9173 113.736 60.275C113.685 62.8994 111.431 65.8931 108.701 66.9616L31.2107 97.2851C29.8933 97.8006 28.7058 97.7738 27.8352 97.3131C26.9014 96.8191 26.3322 95.826 26.3584 94.4679C26.4089 91.8435 28.6633 88.8498 31.3937 87.7814L108.884 57.4578Z" fill="url(#paint39_linear_2071_908)"/>
<path d="M134.717 80.7319C137.447 79.6635 139.702 76.6698 139.752 74.0454L113.736 60.275C113.685 62.8994 111.431 65.8931 108.701 66.9616L134.717 80.7319Z" fill="url(#paint40_linear_2071_908)"/>
<path d="M138.276 71.2006C139.209 71.6948 139.778 72.6877 139.752 74.0454L113.736 60.275C113.762 58.9173 113.193 57.9244 112.26 57.4302L138.276 71.2006Z" fill="url(#paint41_linear_2071_908)"/>
<path d="M134.9 71.2282C136.217 70.7127 137.405 70.7395 138.275 71.2001L112.26 57.4302C111.389 56.9692 110.201 56.9421 108.884 57.4578L134.9 71.2282Z" fill="url(#paint42_linear_2071_908)"/>
<path d="M57.2272 111.056L134.717 80.7319L108.701 66.9616L31.2107 97.2851L57.2272 111.056Z" fill="url(#paint43_linear_2071_908)"/>
<path d="M134.9 71.2282L57.4102 101.552L31.3937 87.7814L108.884 57.4578L134.9 71.2282Z" fill="url(#paint44_linear_2071_908)"/>
<path d="M53.8514 111.084C54.722 111.544 55.9097 111.571 57.2272 111.056L31.2107 97.2851C29.8933 97.8006 28.7058 97.7738 27.8352 97.3131L53.8514 111.084Z" fill="url(#paint45_linear_2071_908)"/>
<path d="M52.3746 108.238C52.3485 109.596 52.9174 110.589 53.8507 111.083L27.8352 97.3131C26.9014 96.8191 26.3322 95.826 26.3584 94.4679L52.3746 108.238Z" fill="url(#paint46_linear_2071_908)"/>
<path d="M57.4102 101.552C54.6798 102.62 52.4252 105.614 52.3746 108.238L26.3584 94.4679C26.4089 91.8435 28.6633 88.8498 31.3937 87.7814L57.4102 101.552Z" fill="url(#paint47_linear_2071_908)"/>
<path d="M134.9 71.2282C137.63 70.1597 139.803 71.421 139.752 74.0454C139.702 76.6698 137.447 79.6635 134.717 80.7319L57.2272 111.056C54.4967 112.124 52.3241 110.863 52.3746 108.238C52.4252 105.614 54.6798 102.62 57.4102 101.552L134.9 71.2282Z" fill="url(#paint48_linear_2071_908)"/>
<path d="M103.899 28.364C106.726 27.1891 109.691 27.4237 111.947 28.7439C113.444 29.6198 114.63 30.9736 115.256 32.7107C116.827 37.0657 114.288 42.1805 109.587 44.1349L37.5896 74.063C34.7639 75.2376 31.7999 75.0034 29.5436 73.6841C28.0455 72.8082 26.8594 71.454 26.2328 69.7163C24.6623 65.3613 27.2007 60.2465 31.9023 58.292L103.899 28.364Z" fill="url(#paint49_linear_2071_908)"/>
<path d="M146.087 65.4825C150.789 63.5281 153.327 58.4133 151.757 54.0582L115.256 32.7107C116.827 37.0657 114.288 42.1805 109.587 44.1349L146.087 65.4825Z" fill="url(#paint50_linear_2071_908)"/>
<path d="M148.448 50.0915C149.945 50.9674 151.13 52.3212 151.757 54.0582L115.256 32.7107C114.63 30.9736 113.444 29.6198 111.947 28.7439L148.448 50.0915Z" fill="url(#paint51_linear_2071_908)"/>
<path d="M140.4 49.7116C143.226 48.537 146.19 48.7712 148.446 50.0904L111.947 28.7439C109.691 27.4237 106.726 27.1891 103.899 28.364L140.4 49.7116Z" fill="url(#paint52_linear_2071_908)"/>
<path d="M74.0902 95.4106L146.087 65.4825L109.587 44.1349L37.5896 74.063L74.0902 95.4106Z" fill="url(#paint53_linear_2071_908)"/>
<path d="M140.4 49.7116L68.4029 79.6396L31.9023 58.292L103.899 28.364L140.4 49.7116Z" fill="url(#paint54_linear_2071_908)"/>
<path d="M66.0442 95.0317C68.3005 96.351 71.2645 96.5852 74.0902 95.4106L37.5896 74.063C34.7639 75.2376 31.7999 75.0034 29.5436 73.6841L66.0442 95.0317Z" fill="url(#paint55_linear_2071_908)"/>
<path d="M62.7335 91.0639C63.3599 92.801 64.5454 94.1548 66.0427 95.0308L29.5436 73.6841C28.0455 72.8082 26.8594 71.454 26.2328 69.7163L62.7335 91.0639Z" fill="url(#paint56_linear_2071_908)"/>
<path d="M68.4029 79.6396C63.7012 81.594 61.163 86.7089 62.7335 91.0639L26.2328 69.7163C24.6623 65.3613 27.2007 60.2465 31.9023 58.292L68.4029 79.6396Z" fill="url(#paint57_linear_2071_908)"/>
<path d="M140.4 49.7116C145.102 47.7571 150.186 49.7032 151.757 54.0582C153.327 58.4133 150.789 63.5281 146.087 65.4825L74.0902 95.4106C69.3885 97.3651 64.304 95.4189 62.7335 91.0639C61.163 86.7089 63.7012 81.594 68.4029 79.6396L140.4 49.7116Z" fill="url(#paint58_linear_2071_908)"/>
<defs>
<linearGradient id="paint0_linear_2071_908" x1="62.5706" y1="144.645" x2="62.5569" y2="101.519" gradientUnits="userSpaceOnUse">
<stop stop-color="#D39213"/>
<stop offset="1" stop-color="#F3B335"/>
</linearGradient>
<linearGradient id="paint1_linear_2071_908" x1="127.062" y1="185.505" x2="120.589" y2="194.196" gradientUnits="userSpaceOnUse">
<stop stop-color="#F5F05F"/>
<stop offset="1" stop-color="#F3B335"/>
</linearGradient>
<linearGradient id="paint2_linear_2071_908" x1="65.8161" y1="217.797" x2="69.6307" y2="190.951" gradientUnits="userSpaceOnUse">
<stop stop-color="#D39213"/>
<stop offset="1" stop-color="#F3B335"/>
</linearGradient>
<linearGradient id="paint3_linear_2071_908" x1="11.2665" y1="231.533" x2="11.2665" y2="230.273" gradientUnits="userSpaceOnUse">
<stop stop-color="#D39213"/>
<stop offset="1" stop-color="#D39213"/>
</linearGradient>
<linearGradient id="paint4_linear_2071_908" x1="6.42891" y1="229.733" x2="5.28701" y2="227.618" gradientUnits="userSpaceOnUse">
<stop stop-color="#D39213"/>
<stop offset="1" stop-color="#F3B335"/>
</linearGradient>
<linearGradient id="paint5_linear_2071_908" x1="4.16362" y1="227.159" x2="4.16312" y2="225.037" gradientUnits="userSpaceOnUse">
<stop stop-color="#D39213"/>
<stop offset="1" stop-color="#F3B335"/>
</linearGradient>
<linearGradient id="paint6_linear_2071_908" x1="39.135" y1="104.652" x2="119.152" y2="3.10428" gradientUnits="userSpaceOnUse">
<stop stop-color="#E7371C"/>
<stop offset="1" stop-color="#E7371C"/>
</linearGradient>
<linearGradient id="paint7_linear_2071_908" x1="4.41645" y1="141.359" x2="0.48879" y2="141.342" gradientUnits="userSpaceOnUse">
<stop stop-color="#F3B335"/>
<stop offset="1" stop-color="#F3B335"/>
</linearGradient>
<linearGradient id="paint8_linear_2071_908" x1="125.149" y1="7.83015" x2="127.402" y2="4.97189" gradientUnits="userSpaceOnUse">
<stop stop-color="#E7371C"/>
<stop offset="1" stop-color="#970924"/>
</linearGradient>
<linearGradient id="paint9_linear_2071_908" x1="126.171" y1="4.00238" x2="126.243" y2="3.9117" gradientUnits="userSpaceOnUse">
<stop stop-color="#970924"/>
<stop offset="0.5" stop-color="#8C0826"/>
<stop offset="1" stop-color="#930825"/>
</linearGradient>
<linearGradient id="paint10_linear_2071_908" x1="126.73" y1="4.01008" x2="116.205" y2="0.851442" gradientUnits="userSpaceOnUse">
<stop stop-color="#FFFDC8"/>
<stop offset="1" stop-color="#F5F2A3"/>
</linearGradient>
<linearGradient id="paint11_linear_2071_908" x1="87.7502" y1="22.4684" x2="31.546" y2="-3.31686" gradientUnits="userSpaceOnUse">
<stop stop-color="#F5F2A3"/>
<stop offset="1" stop-color="#F5F05F"/>
</linearGradient>
<linearGradient id="paint12_linear_2071_908" x1="13.7102" y1="49.3809" x2="2.92118" y2="49.9665" gradientUnits="userSpaceOnUse">
<stop stop-color="#F5F05F"/>
<stop offset="1" stop-color="#F3B335"/>
</linearGradient>
<linearGradient id="paint13_linear_2071_908" x1="-45.1287" y1="-62.4014" x2="260.951" y2="179.551" gradientUnits="userSpaceOnUse">
<stop stop-color="#EA543C"/>
<stop offset="1" stop-color="#C5AA24"/>
</linearGradient>
<linearGradient id="paint14_linear_2071_908" x1="129.616" y1="106.876" x2="23.4209" y2="122.029" gradientUnits="userSpaceOnUse">
<stop stop-color="#F6DF7F"/>
<stop offset="0.463276" stop-color="#F5D962"/>
<stop offset="1" stop-color="#E3A01D"/>
</linearGradient>
<linearGradient id="paint15_linear_2071_908" x1="18.1384" y1="34.0134" x2="-0.26566" y2="35.7122" gradientUnits="userSpaceOnUse">
<stop stop-color="#FDF882"/>
<stop offset="1" stop-color="#F6F170"/>
</linearGradient>
<linearGradient id="paint16_linear_2071_908" x1="112.641" y1="154.728" x2="98.3944" y2="115.023" gradientUnits="userSpaceOnUse">
<stop offset="0.0992564" stop-color="#F6F170" stop-opacity="0"/>
<stop offset="1" stop-color="#F6F170"/>
</linearGradient>
<linearGradient id="paint17_linear_2071_908" x1="112.641" y1="154.728" x2="98.3944" y2="115.023" gradientUnits="userSpaceOnUse">
<stop offset="0.0992564" stop-color="#F6F170" stop-opacity="0"/>
<stop offset="1" stop-color="#F6F170"/>
</linearGradient>
<linearGradient id="paint18_linear_2071_908" x1="112.641" y1="154.728" x2="98.3944" y2="115.023" gradientUnits="userSpaceOnUse">
<stop offset="0.0992564" stop-color="#F6F170" stop-opacity="0"/>
<stop offset="1" stop-color="#F6F170"/>
</linearGradient>
<linearGradient id="paint19_linear_2071_908" x1="112.641" y1="154.728" x2="98.3944" y2="115.023" gradientUnits="userSpaceOnUse">
<stop offset="0.0992564" stop-color="#F6F170" stop-opacity="0"/>
<stop offset="1" stop-color="#F6F170"/>
</linearGradient>
<linearGradient id="paint20_linear_2071_908" x1="112.641" y1="154.728" x2="98.3944" y2="115.023" gradientUnits="userSpaceOnUse">
<stop offset="0.0992564" stop-color="#F6F170" stop-opacity="0"/>
<stop offset="1" stop-color="#F6F170"/>
</linearGradient>
<linearGradient id="paint21_linear_2071_908" x1="112.641" y1="154.728" x2="98.3944" y2="115.023" gradientUnits="userSpaceOnUse">
<stop offset="0.0992564" stop-color="#F6F170" stop-opacity="0"/>
<stop offset="1" stop-color="#F6F170"/>
</linearGradient>
<linearGradient id="paint22_linear_2071_908" x1="112.641" y1="154.728" x2="98.3944" y2="115.023" gradientUnits="userSpaceOnUse">
<stop offset="0.0992564" stop-color="#F6F170" stop-opacity="0"/>
<stop offset="1" stop-color="#F6F170"/>
</linearGradient>
<linearGradient id="paint23_linear_2071_908" x1="112.641" y1="154.728" x2="98.3944" y2="115.023" gradientUnits="userSpaceOnUse">
<stop offset="0.0992564" stop-color="#F6F170" stop-opacity="0"/>
<stop offset="1" stop-color="#F6F170"/>
</linearGradient>
<linearGradient id="paint24_linear_2071_908" x1="112.641" y1="154.728" x2="98.3944" y2="115.023" gradientUnits="userSpaceOnUse">
<stop offset="0.0992564" stop-color="#F6F170" stop-opacity="0"/>
<stop offset="1" stop-color="#F6F170"/>
</linearGradient>
<linearGradient id="paint25_linear_2071_908" x1="112.641" y1="154.728" x2="98.3944" y2="115.023" gradientUnits="userSpaceOnUse">
<stop offset="0.0992564" stop-color="#F6F170" stop-opacity="0"/>
<stop offset="1" stop-color="#F6F170"/>
</linearGradient>
<linearGradient id="paint26_linear_2071_908" x1="87.838" y1="159.4" x2="54.6923" y2="154.52" gradientUnits="userSpaceOnUse">
<stop offset="0.36153" stop-color="#F6F170" stop-opacity="0"/>
<stop offset="1" stop-color="#F6F170" stop-opacity="0.44"/>
</linearGradient>
<linearGradient id="paint27_linear_2071_908" x1="87.838" y1="159.4" x2="54.6923" y2="154.52" gradientUnits="userSpaceOnUse">
<stop offset="0.36153" stop-color="#F6F170" stop-opacity="0"/>
<stop offset="1" stop-color="#F6F170" stop-opacity="0.44"/>
</linearGradient>
<linearGradient id="paint28_linear_2071_908" x1="87.838" y1="159.4" x2="54.6923" y2="154.52" gradientUnits="userSpaceOnUse">
<stop offset="0.36153" stop-color="#F6F170" stop-opacity="0"/>
<stop offset="1" stop-color="#F6F170" stop-opacity="0.44"/>
</linearGradient>
<linearGradient id="paint29_linear_2071_908" x1="87.838" y1="159.4" x2="54.6923" y2="154.52" gradientUnits="userSpaceOnUse">
<stop offset="0.36153" stop-color="#F6F170" stop-opacity="0"/>
<stop offset="1" stop-color="#F6F170" stop-opacity="0.44"/>
</linearGradient>
<linearGradient id="paint30_linear_2071_908" x1="87.838" y1="159.4" x2="54.6923" y2="154.52" gradientUnits="userSpaceOnUse">
<stop offset="0.36153" stop-color="#F6F170" stop-opacity="0"/>
<stop offset="1" stop-color="#F6F170" stop-opacity="0.44"/>
</linearGradient>
<linearGradient id="paint31_linear_2071_908" x1="87.838" y1="159.4" x2="54.6923" y2="154.52" gradientUnits="userSpaceOnUse">
<stop offset="0.36153" stop-color="#F6F170" stop-opacity="0"/>
<stop offset="1" stop-color="#F6F170" stop-opacity="0.44"/>
</linearGradient>
<linearGradient id="paint32_linear_2071_908" x1="87.838" y1="159.4" x2="54.6923" y2="154.52" gradientUnits="userSpaceOnUse">
<stop offset="0.36153" stop-color="#F6F170" stop-opacity="0"/>
<stop offset="1" stop-color="#F6F170" stop-opacity="0.44"/>
</linearGradient>
<linearGradient id="paint33_linear_2071_908" x1="87.838" y1="159.4" x2="54.6923" y2="154.52" gradientUnits="userSpaceOnUse">
<stop offset="0.36153" stop-color="#F6F170" stop-opacity="0"/>
<stop offset="1" stop-color="#F6F170" stop-opacity="0.44"/>
</linearGradient>
<linearGradient id="paint34_linear_2071_908" x1="87.838" y1="159.4" x2="54.6923" y2="154.52" gradientUnits="userSpaceOnUse">
<stop offset="0.36153" stop-color="#F6F170" stop-opacity="0"/>
<stop offset="1" stop-color="#F6F170" stop-opacity="0.44"/>
</linearGradient>
<linearGradient id="paint35_linear_2071_908" x1="87.838" y1="159.4" x2="54.6923" y2="154.52" gradientUnits="userSpaceOnUse">
<stop offset="0.36153" stop-color="#F6F170" stop-opacity="0"/>
<stop offset="1" stop-color="#F6F170" stop-opacity="0.44"/>
</linearGradient>
<linearGradient id="paint36_linear_2071_908" x1="16.8216" y1="37.0087" x2="-0.285903" y2="38.3547" gradientUnits="userSpaceOnUse">
<stop stop-color="#FDF882"/>
<stop offset="1" stop-color="#F6F170"/>
</linearGradient>
<linearGradient id="paint37_linear_2071_908" x1="16.8216" y1="37.0087" x2="-0.285903" y2="38.3547" gradientUnits="userSpaceOnUse">
<stop stop-color="#FDF882"/>
<stop offset="1" stop-color="#F6F170"/>
</linearGradient>
<linearGradient id="paint38_linear_2071_908" x1="9.95284" y1="37.0087" x2="-0.209792" y2="37.4818" gradientUnits="userSpaceOnUse">
<stop stop-color="#FDF882"/>
<stop offset="1" stop-color="#F6F170"/>
</linearGradient>
<linearGradient id="paint39_linear_2071_908" x1="128.305" y1="94.0668" x2="105.246" y2="40.3471" gradientUnits="userSpaceOnUse">
<stop offset="0.478905" stop-color="#F6F170" stop-opacity="0"/>
<stop offset="1" stop-color="#F6F170"/>
</linearGradient>
<linearGradient id="paint40_linear_2071_908" x1="128.305" y1="94.0668" x2="105.246" y2="40.3471" gradientUnits="userSpaceOnUse">
<stop offset="0.478905" stop-color="#F6F170" stop-opacity="0"/>
<stop offset="1" stop-color="#F6F170"/>
</linearGradient>
<linearGradient id="paint41_linear_2071_908" x1="128.305" y1="94.0668" x2="105.246" y2="40.3471" gradientUnits="userSpaceOnUse">
<stop offset="0.478905" stop-color="#F6F170" stop-opacity="0"/>
<stop offset="1" stop-color="#F6F170"/>
</linearGradient>
<linearGradient id="paint42_linear_2071_908" x1="128.305" y1="94.0668" x2="105.246" y2="40.3471" gradientUnits="userSpaceOnUse">
<stop offset="0.478905" stop-color="#F6F170" stop-opacity="0"/>
<stop offset="1" stop-color="#F6F170"/>
</linearGradient>
<linearGradient id="paint43_linear_2071_908" x1="128.305" y1="94.0668" x2="105.246" y2="40.3471" gradientUnits="userSpaceOnUse">
<stop offset="0.478905" stop-color="#F6F170" stop-opacity="0"/>
<stop offset="1" stop-color="#F6F170"/>
</linearGradient>
<linearGradient id="paint44_linear_2071_908" x1="128.305" y1="94.0668" x2="105.246" y2="40.3471" gradientUnits="userSpaceOnUse">
<stop offset="0.478905" stop-color="#F6F170" stop-opacity="0"/>
<stop offset="1" stop-color="#F6F170"/>
</linearGradient>
<linearGradient id="paint45_linear_2071_908" x1="128.305" y1="94.0668" x2="105.246" y2="40.3471" gradientUnits="userSpaceOnUse">
<stop offset="0.478905" stop-color="#F6F170" stop-opacity="0"/>
<stop offset="1" stop-color="#F6F170"/>
</linearGradient>
<linearGradient id="paint46_linear_2071_908" x1="128.305" y1="94.0668" x2="105.246" y2="40.3471" gradientUnits="userSpaceOnUse">
<stop offset="0.478905" stop-color="#F6F170" stop-opacity="0"/>
<stop offset="1" stop-color="#F6F170"/>
</linearGradient>
<linearGradient id="paint47_linear_2071_908" x1="128.305" y1="94.0668" x2="105.246" y2="40.3471" gradientUnits="userSpaceOnUse">
<stop offset="0.478905" stop-color="#F6F170" stop-opacity="0"/>
<stop offset="1" stop-color="#F6F170"/>
</linearGradient>
<linearGradient id="paint48_linear_2071_908" x1="128.305" y1="94.0668" x2="105.246" y2="40.3471" gradientUnits="userSpaceOnUse">
<stop offset="0.478905" stop-color="#F6F170" stop-opacity="0"/>
<stop offset="1" stop-color="#F6F170"/>
</linearGradient>
<linearGradient id="paint49_linear_2071_908" x1="145.13" y1="72.3709" x2="114.984" y2="10.7696" gradientUnits="userSpaceOnUse">
<stop offset="0.564142" stop-color="#F6F170" stop-opacity="0"/>
<stop offset="1" stop-color="#F6F170"/>
</linearGradient>
<linearGradient id="paint50_linear_2071_908" x1="145.13" y1="72.3709" x2="114.984" y2="10.7696" gradientUnits="userSpaceOnUse">
<stop offset="0.564142" stop-color="#F6F170" stop-opacity="0"/>
<stop offset="1" stop-color="#F6F170"/>
</linearGradient>
<linearGradient id="paint51_linear_2071_908" x1="145.13" y1="72.3709" x2="114.984" y2="10.7696" gradientUnits="userSpaceOnUse">
<stop offset="0.564142" stop-color="#F6F170" stop-opacity="0"/>
<stop offset="1" stop-color="#F6F170"/>
</linearGradient>
<linearGradient id="paint52_linear_2071_908" x1="145.13" y1="72.3709" x2="114.984" y2="10.7696" gradientUnits="userSpaceOnUse">
<stop offset="0.564142" stop-color="#F6F170" stop-opacity="0"/>
<stop offset="1" stop-color="#F6F170"/>
</linearGradient>
<linearGradient id="paint53_linear_2071_908" x1="145.13" y1="72.3709" x2="114.984" y2="10.7696" gradientUnits="userSpaceOnUse">
<stop offset="0.564142" stop-color="#F6F170" stop-opacity="0"/>
<stop offset="1" stop-color="#F6F170"/>
</linearGradient>
<linearGradient id="paint54_linear_2071_908" x1="145.13" y1="72.3709" x2="114.984" y2="10.7696" gradientUnits="userSpaceOnUse">
<stop offset="0.564142" stop-color="#F6F170" stop-opacity="0"/>
<stop offset="1" stop-color="#F6F170"/>
</linearGradient>
<linearGradient id="paint55_linear_2071_908" x1="145.13" y1="72.3709" x2="114.984" y2="10.7696" gradientUnits="userSpaceOnUse">
<stop offset="0.564142" stop-color="#F6F170" stop-opacity="0"/>
<stop offset="1" stop-color="#F6F170"/>
</linearGradient>
<linearGradient id="paint56_linear_2071_908" x1="145.13" y1="72.3709" x2="114.984" y2="10.7696" gradientUnits="userSpaceOnUse">
<stop offset="0.564142" stop-color="#F6F170" stop-opacity="0"/>
<stop offset="1" stop-color="#F6F170"/>
</linearGradient>
<linearGradient id="paint57_linear_2071_908" x1="145.13" y1="72.3709" x2="114.984" y2="10.7696" gradientUnits="userSpaceOnUse">
<stop offset="0.564142" stop-color="#F6F170" stop-opacity="0"/>
<stop offset="1" stop-color="#F6F170"/>
</linearGradient>
<linearGradient id="paint58_linear_2071_908" x1="145.13" y1="72.3709" x2="114.984" y2="10.7696" gradientUnits="userSpaceOnUse">
<stop offset="0.564142" stop-color="#F6F170" stop-opacity="0"/>
<stop offset="1" stop-color="#F6F170"/>
</linearGradient>
</defs>
</svg>
