<svg width="175" height="220" viewBox="0 0 175 220" fill="none" xmlns="http://www.w3.org/2000/svg">
<path d="M164.973 21.116C157.3 10.1531 143.041 6.83971 126.717 14.1073C111.807 20.7459 98.6197 34.68 90.6004 50.6059C88.0681 55.6348 82.7923 57.9837 80.2603 55.2096C72.2413 46.4247 59.0538 44.2334 44.144 50.8717C18.484 62.2213 0.00701658 94.3944 0.00701658 122.578L0 122.581C0 122.768 0.00801894 122.95 0.00902131 123.137C0.0624809 131.102 1.26098 138.271 3.33087 144.726L30.9421 132.433C32.0489 131.94 33.1246 131.862 34.0013 132.211C34.5161 132.416 34.9453 132.762 35.2691 133.224C35.4967 133.549 35.6721 133.931 35.7886 134.363L38.0549 142.768L47.532 102.888C47.8331 101.621 48.4596 100.346 49.3187 99.2514C50.1778 98.1567 51.2236 97.3009 52.3012 96.8108L52.3447 96.7915C53.4148 96.315 54.4569 96.226 55.3183 96.5376C55.87 96.7372 56.329 97.0944 56.671 97.5825C56.8629 97.8564 57.0179 98.1715 57.1316 98.5231L64.3547 120.835L72.8391 117.058C73.8987 116.586 74.9311 116.494 75.7879 116.795C76.3505 116.993 76.8184 117.353 77.1656 117.849C77.3472 118.108 77.4958 118.404 77.6077 118.733L81.0298 128.797L84.8956 114.625C85.2325 113.39 85.8713 112.164 86.7224 111.118C87.5734 110.072 88.5939 109.258 89.6408 108.792L121.261 94.7141C123.108 93.8917 124.722 94.267 125.591 95.5081C126.025 96.1269 126.273 96.9608 126.273 97.9688C126.273 100.999 124.029 104.454 121.261 105.686L93.2306 118.166L85.6554 145.934C85.3185 147.169 84.6798 148.396 83.8288 149.442C82.9778 150.488 81.9573 151.301 80.9105 151.767L80.8727 151.784C79.8195 152.245 78.7956 152.329 77.9463 152.025C77.3903 151.826 76.9276 151.468 76.5835 150.977C76.402 150.717 76.2534 150.421 76.1415 150.092L69.1918 129.655L60.66 133.453C59.5898 133.93 58.5477 134.019 57.6862 133.707C57.1344 133.508 56.6753 133.15 56.3333 132.662C56.1414 132.388 55.9864 132.073 55.8727 131.722L52.4947 121.286L42.629 162.801C42.326 164.077 41.6931 165.36 40.8255 166.46C39.9578 167.559 38.9022 168.414 37.8173 168.897L37.7532 168.926C36.6573 169.398 35.5962 169.463 34.7324 169.109C34.2288 168.903 33.8085 168.561 33.4902 168.107C33.2625 167.782 33.087 167.399 32.9706 166.967L27.0803 145.125L7.12383 154.01C8.55242 156.851 10.1614 159.527 11.9192 162.046C14.4756 165.711 17.3467 169.045 20.4349 172.076C39.1879 190.481 65.8977 197.755 78.443 200.282C80.5981 200.716 83.052 200.367 85.5549 199.271C88.0578 198.175 90.5205 196.371 92.6923 194.042C105.302 180.517 131.734 149.946 150.387 114.218C161.553 92.8298 169.922 69.5958 170.878 47.0616C170.938 45.6386 170.979 44.2175 170.979 42.8006C170.979 33.9194 168.791 26.5708 164.973 21.116Z" fill="#F3B335"/>
<path d="M164.973 21.116C157.3 10.1531 143.041 6.83971 126.717 14.1073C111.807 20.7459 98.6197 34.68 90.6004 50.6059C88.0681 55.6348 82.7923 57.9837 80.2603 55.2096C72.2413 46.4247 59.0538 44.2334 44.144 50.8717C18.484 62.2213 0.00701658 94.3944 0.00701658 122.578L0 122.581C0 122.768 0.00801894 122.95 0.00902131 123.137C0.0624809 131.102 1.26098 138.271 3.33087 144.726L30.9421 132.433C32.0489 131.94 33.1246 131.862 34.0013 132.211C34.5161 132.416 34.9453 132.762 35.2691 133.224C35.4967 133.549 35.6721 133.931 35.7886 134.363L38.0549 142.768L47.532 102.888C47.8331 101.621 48.4596 100.346 49.3187 99.2514C50.1778 98.1567 51.2236 97.3009 52.3012 96.8108L52.3447 96.7915C53.4148 96.315 54.4569 96.226 55.3183 96.5376C55.87 96.7372 56.329 97.0944 56.671 97.5825C56.8629 97.8564 57.0179 98.1715 57.1316 98.5231L64.3547 120.835L72.8391 117.058C73.8987 116.586 74.9311 116.494 75.7879 116.795C76.3505 116.993 76.8184 117.353 77.1656 117.849C77.3472 118.108 77.4958 118.404 77.6077 118.733L81.0298 128.797L84.8956 114.625C85.2325 113.39 85.8713 112.164 86.7224 111.118C87.5734 110.072 88.5939 109.258 89.6408 108.792L121.261 94.7141C123.108 93.8917 124.722 94.267 125.591 95.5081C126.025 96.1269 126.273 96.9608 126.273 97.9688C126.273 100.999 124.029 104.454 121.261 105.686L93.2306 118.166L85.6554 145.934C85.3185 147.169 84.6798 148.396 83.8288 149.442C82.9778 150.488 81.9573 151.301 80.9105 151.767L80.8727 151.784C79.8195 152.245 78.7956 152.329 77.9463 152.025C77.3903 151.826 76.9276 151.468 76.5835 150.977C76.402 150.717 76.2534 150.421 76.1415 150.092L69.1918 129.655L60.66 133.453C59.5898 133.93 58.5477 134.019 57.6862 133.707C57.1344 133.508 56.6753 133.15 56.3333 132.662C56.1414 132.388 55.9864 132.073 55.8727 131.722L52.4947 121.286L42.629 162.801C42.326 164.077 41.6931 165.36 40.8255 166.46C39.9578 167.559 38.9022 168.414 37.8173 168.897L37.7532 168.926C36.6573 169.398 35.5962 169.463 34.7324 169.109C34.2288 168.903 33.8085 168.561 33.4902 168.107C33.2625 167.782 33.087 167.399 32.9706 166.967L27.0803 145.125L7.12383 154.01C8.55242 156.851 10.1614 159.527 11.9192 162.046C14.4756 165.711 17.3467 169.045 20.4349 172.076C39.1879 190.481 65.8977 197.755 78.443 200.282C80.5981 200.716 83.052 200.367 85.5549 199.271C88.0578 198.175 90.5205 196.371 92.6923 194.042C105.302 180.517 131.734 149.946 150.387 114.218C161.553 92.8298 169.922 69.5958 170.878 47.0616C170.938 45.6386 170.979 44.2175 170.979 42.8006C170.979 33.9194 168.791 26.5708 164.973 21.116Z" fill="url(#paint0_linear_2071_903)"/>
<path d="M96.7134 199.841C94.5416 202.17 92.0789 203.975 89.576 205.071L85.5923 199.381C88.0952 198.285 90.5579 196.481 92.7297 194.152L96.7134 199.841Z" fill="url(#paint1_linear_2071_903)"/>
<path d="M89.5759 205.071C87.0729 206.167 84.619 206.516 82.4639 206.082L78.4802 200.393C80.6353 200.826 83.0892 200.478 85.5921 199.381L89.5759 205.071Z" fill="url(#paint2_linear_2071_903)"/>
<path d="M154.408 120.017C135.755 155.746 109.323 186.317 96.7133 199.841L92.7296 194.152C105.34 180.627 131.771 150.056 150.424 114.328L154.408 120.017Z" fill="url(#paint3_linear_2071_903)"/>
<path d="M82.464 206.082C69.9187 203.555 43.2089 196.28 24.4559 177.875L20.4722 172.186C39.2252 190.591 65.935 197.865 78.4803 200.393L82.464 206.082Z" fill="url(#paint4_linear_2071_903)"/>
<path d="M84.8937 157.584L84.9314 157.567L80.9477 151.878L80.91 151.895L84.8937 157.584Z" fill="url(#paint5_linear_2071_903)"/>
<path d="M84.9315 157.567C85.9783 157.101 86.9988 156.288 87.8498 155.242L83.8661 149.552C83.0151 150.598 81.9946 151.412 80.9478 151.878L84.9315 157.567Z" fill="url(#paint6_linear_2071_903)"/>
<path d="M81.9673 157.825C82.8166 158.128 83.8406 158.044 84.8938 157.584L80.9101 151.895C79.8569 152.355 78.8329 152.439 77.9836 152.135L81.9673 157.825Z" fill="url(#paint7_linear_2071_903)"/>
<path d="M87.8498 155.241C88.7008 154.195 89.3395 152.969 89.6764 151.734L85.6927 146.044C85.3558 147.279 84.7171 148.506 83.8661 149.552L87.8498 155.241Z" fill="url(#paint8_linear_2071_903)"/>
<path d="M80.6046 156.776C80.9487 157.267 81.4113 157.626 81.9673 157.825L77.9836 152.135C77.4276 151.937 76.965 151.578 76.6208 151.087L80.6046 156.776Z" fill="url(#paint9_linear_2071_903)"/>
<path d="M80.1627 155.892C80.2744 156.22 80.4226 156.516 80.6038 156.775L76.6209 151.087C76.4394 150.828 76.2908 150.532 76.179 150.203L80.1627 155.892Z" fill="url(#paint10_linear_2071_903)"/>
<path d="M41.7742 174.725L41.8384 174.697L37.8547 169.008L37.7905 169.036L41.7742 174.725Z" fill="url(#paint11_linear_2071_903)"/>
<path d="M41.8383 174.697C42.9232 174.214 43.9788 173.358 44.8464 172.259L40.8627 166.57C39.9951 167.669 38.9395 168.525 37.8546 169.008L41.8383 174.697Z" fill="url(#paint12_linear_2071_903)"/>
<path d="M89.6763 151.734L97.2516 123.966L93.2679 118.277L85.6926 146.045L89.6763 151.734Z" fill="url(#paint13_linear_2071_903)"/>
<path d="M89.6763 151.734L97.2516 123.966L93.2679 118.277L85.6926 146.045L89.6763 151.734Z" fill="url(#paint14_linear_2071_903)"/>
<path d="M38.7534 174.909C39.6172 175.263 40.6784 175.198 41.7742 174.725L37.7905 169.036C36.6947 169.509 35.6335 169.573 34.7697 169.22L38.7534 174.909Z" fill="url(#paint15_linear_2071_903)"/>
<path d="M44.8465 172.259C45.7142 171.16 46.347 169.876 46.6501 168.601L42.6664 162.912C42.3633 164.187 41.7304 165.47 40.8628 166.57L44.8465 172.259Z" fill="url(#paint16_linear_2071_903)"/>
<path d="M174.899 52.8612C173.943 75.3954 165.574 98.6294 154.408 120.017L150.424 114.328C161.59 92.9401 169.959 69.7061 170.915 47.1719L174.899 52.8612Z" fill="url(#paint17_linear_2071_903)"/>
<path d="M37.5111 173.907C37.8294 174.361 38.2498 174.703 38.7534 174.909L34.7696 169.22C34.2661 169.013 33.8457 168.672 33.5274 168.217L37.5111 173.907Z" fill="url(#paint18_linear_2071_903)"/>
<path d="M36.9916 172.767C37.1078 173.198 37.283 173.581 37.5103 173.905L33.5275 168.217C33.2998 167.892 33.1243 167.51 33.0079 167.078L36.9916 172.767Z" fill="url(#paint19_linear_2071_903)"/>
<path d="M36.9916 172.767C37.1078 173.198 37.283 173.581 37.5103 173.905L33.5275 168.217C33.2998 167.892 33.1243 167.51 33.0079 167.078L36.9916 172.767Z" fill="url(#paint20_linear_2071_903)"/>
<path d="M73.2128 135.454L80.1626 155.892L76.1789 150.203L69.2291 129.765L73.2128 135.454Z" fill="url(#paint21_linear_2071_903)"/>
<path d="M73.2128 135.454L80.1626 155.892L76.1789 150.203L69.2291 129.765L73.2128 135.454Z" fill="url(#paint22_linear_2071_903)"/>
<path d="M125.282 111.486C128.05 110.254 130.294 106.798 130.294 103.768L126.31 98.0791C126.31 101.109 124.066 104.564 121.298 105.797L125.282 111.486Z" fill="url(#paint23_linear_2071_903)"/>
<path d="M125.282 111.486C128.05 110.254 130.294 106.798 130.294 103.768L126.31 98.0791C126.31 101.109 124.066 104.564 121.298 105.797L125.282 111.486Z" fill="url(#paint24_linear_2071_903)"/>
<path d="M97.2516 123.966L125.282 111.486L121.298 105.797L93.2679 118.277L97.2516 123.966Z" fill="url(#paint25_linear_2071_903)"/>
<path d="M97.2516 123.966L125.282 111.486L121.298 105.797L93.2679 118.277L97.2516 123.966Z" fill="url(#paint26_linear_2071_903)"/>
<path d="M130.294 103.768C130.294 102.76 130.046 101.926 129.612 101.307L125.629 95.619C126.062 96.2377 126.31 97.0713 126.31 98.0788L130.294 103.768Z" fill="url(#paint27_linear_2071_903)"/>
<path d="M130.294 103.768C130.294 102.76 130.046 101.926 129.612 101.307L125.629 95.619C126.062 96.2377 126.31 97.0713 126.31 98.0788L130.294 103.768Z" fill="url(#paint28_linear_2071_903)"/>
<path d="M129.612 101.308C128.743 100.067 127.129 99.6912 125.282 100.514L121.298 94.8242C123.145 94.0019 124.759 94.3772 125.628 95.6183L129.612 101.308Z" fill="url(#paint29_linear_2071_903)"/>
<path d="M88.9166 120.425L85.0508 134.596L81.0671 128.907L84.9329 114.735L88.9166 120.425Z" fill="url(#paint30_linear_2071_903)"/>
<path d="M85.0509 134.597L81.6288 124.533L77.6451 118.844L81.0672 128.907L85.0509 134.597Z" fill="url(#paint31_linear_2071_903)"/>
<path d="M24.4559 177.875C21.3677 174.844 18.4966 171.51 15.9402 167.846L12.0896 162.346C12.0451 162.283 12.0007 162.22 11.9565 162.156L12.0896 162.346C14.6124 165.936 17.4375 169.207 20.4722 172.186L24.4559 177.875Z" fill="url(#paint32_linear_2071_903)"/>
<path d="M31.1013 150.924L36.9915 172.767L33.0078 167.078L27.1176 145.235L31.1013 150.924Z" fill="url(#paint33_linear_2071_903)"/>
<path d="M31.1013 150.924L36.9915 172.767L33.0078 167.078L27.1176 145.235L31.1013 150.924Z" fill="url(#paint34_linear_2071_903)"/>
<path d="M64.681 139.253L73.2129 135.454L69.2292 129.765L60.6973 133.564L64.681 139.253Z" fill="url(#paint35_linear_2071_903)"/>
<path d="M64.681 139.253L73.2129 135.454L69.2292 129.765L60.6973 133.564L64.681 139.253Z" fill="url(#paint36_linear_2071_903)"/>
<path d="M125.282 100.514L93.6618 114.592L89.6781 108.903L121.298 94.8242L125.282 100.514Z" fill="url(#paint37_linear_2071_903)"/>
<path d="M46.65 168.601L56.5157 127.086L52.532 121.396L42.6663 162.912L46.65 168.601Z" fill="url(#paint38_linear_2071_903)"/>
<path d="M61.7072 139.507C62.5686 139.819 63.6107 139.73 64.6809 139.253L60.6972 133.564C59.627 134.04 58.5849 134.129 57.7234 133.818L61.7072 139.507Z" fill="url(#paint39_linear_2071_903)"/>
<path d="M60.3543 138.462C60.6962 138.95 61.1553 139.307 61.7072 139.507L57.7235 133.817C57.1716 133.618 56.7125 133.261 56.3705 132.772L60.3543 138.462Z" fill="url(#paint40_linear_2071_903)"/>
<path d="M90.7435 116.917C89.8924 117.963 89.2536 119.19 88.9167 120.425L84.933 114.736C85.2699 113.501 85.9087 112.274 86.7598 111.228L90.7435 116.917Z" fill="url(#paint41_linear_2071_903)"/>
<path d="M81.6287 124.533C81.5168 124.204 81.3682 123.907 81.1866 123.648L77.2038 117.96C77.385 118.219 77.5332 118.515 77.6449 118.843L81.6287 124.533Z" fill="url(#paint42_linear_2071_903)"/>
<path d="M93.6618 114.592C92.6149 115.058 91.5944 115.871 90.7434 116.918L86.7596 111.228C87.6107 110.182 88.6312 109.369 89.678 108.903L93.6618 114.592Z" fill="url(#paint43_linear_2071_903)"/>
<path d="M59.8937 137.521C60.0074 137.872 60.162 138.187 60.3535 138.461L56.3707 132.773C56.1788 132.499 56.0238 132.184 55.91 131.832L59.8937 137.521Z" fill="url(#paint44_linear_2071_903)"/>
<path d="M81.1866 123.649C80.8394 123.153 80.3715 122.793 79.8089 122.595L75.8252 116.906C76.3878 117.103 76.8557 117.464 77.2029 117.96L81.1866 123.649Z" fill="url(#paint45_linear_2071_903)"/>
<path d="M79.8089 122.595C78.9521 122.294 77.9197 122.386 76.86 122.858L72.8763 117.168C73.936 116.697 74.9684 116.605 75.8251 116.906L79.8089 122.595Z" fill="url(#paint46_linear_2071_903)"/>
<path d="M76.8601 122.858L68.3757 126.635L64.392 120.946L72.8764 117.168L76.8601 122.858Z" fill="url(#paint47_linear_2071_903)"/>
<path d="M15.9403 167.846C14.1825 165.326 12.5735 162.65 11.1449 159.809L7.16119 154.12C8.58978 156.961 10.1988 159.637 11.9566 162.156L15.9403 167.846Z" fill="url(#paint48_linear_2071_903)"/>
<path d="M175 48.6C175 50.0169 174.959 51.438 174.899 52.861L170.915 47.1716C170.976 45.7487 171.016 44.3275 171.016 42.9106L175 48.6Z" fill="url(#paint49_linear_2071_903)"/>
<path d="M56.5157 127.086L59.8937 137.521L55.91 131.832L52.532 121.396L56.5157 127.086Z" fill="url(#paint50_linear_2071_903)"/>
<path d="M56.5157 127.086L59.8937 137.521L55.91 131.832L52.532 121.396L56.5157 127.086Z" fill="url(#paint51_linear_2071_903)"/>
<path d="M42.0759 148.568L39.8096 140.162L35.8259 134.473L38.0922 142.878L42.0759 148.568Z" fill="url(#paint52_linear_2071_903)"/>
<path d="M11.1449 159.809L31.1014 150.924L27.1177 145.235L7.16119 154.12L11.1449 159.809Z" fill="url(#paint53_linear_2071_903)"/>
<path d="M39.8096 140.162C39.6932 139.731 39.5177 139.348 39.2902 139.023L35.3073 133.335C35.5345 133.66 35.7096 134.042 35.8259 134.473L39.8096 140.162Z" fill="url(#paint54_linear_2071_903)"/>
<path d="M39.8096 140.162C39.6932 139.731 39.5177 139.348 39.2902 139.023L35.3073 133.335C35.5345 133.66 35.7096 134.042 35.8259 134.473L39.8096 140.162Z" fill="url(#paint55_linear_2071_903)"/>
<path d="M39.2901 139.024C38.9664 138.562 38.5372 138.216 38.0223 138.011L34.0386 132.322C34.5535 132.527 34.9827 132.872 35.3064 133.334L39.2901 139.024Z" fill="url(#paint56_linear_2071_903)"/>
<path d="M38.0222 138.011C37.1455 137.662 36.0698 137.739 34.963 138.232L30.9793 132.543C32.0861 132.05 33.1618 131.972 34.0385 132.321L38.0222 138.011Z" fill="url(#paint57_linear_2071_903)"/>
<path d="M51.5529 108.687L42.0759 148.567L38.0922 142.878L47.5692 102.998L51.5529 108.687Z" fill="url(#paint58_linear_2071_903)"/>
<path d="M68.3757 126.635L61.1526 104.323L57.1689 98.6338L64.3919 120.946L68.3757 126.635Z" fill="url(#paint59_linear_2071_903)"/>
<path d="M68.3757 126.635L61.1526 104.323L57.1689 98.6338L64.3919 120.946L68.3757 126.635Z" fill="url(#paint60_linear_2071_903)"/>
<path d="M34.963 138.232L7.35181 150.526L3.3681 144.836L30.9793 132.543L34.963 138.232Z" fill="url(#paint61_linear_2071_903)"/>
<path d="M168.994 26.9159C172.812 32.3706 175 39.7192 175 48.6004L171.016 42.9111C171.016 34.0299 168.829 26.6813 165.011 21.2266L168.994 26.9159Z" fill="url(#paint62_linear_2071_903)"/>
<path d="M61.1526 104.323C61.0389 103.971 60.8839 103.656 60.692 103.382L56.7091 97.6941C56.9006 97.9677 57.0553 98.2824 57.1689 98.6335L61.1526 104.323Z" fill="url(#paint63_linear_2071_903)"/>
<path d="M61.1526 104.323C61.0389 103.971 60.8839 103.656 60.692 103.382L56.7091 97.6941C56.9006 97.9677 57.0553 98.2824 57.1689 98.6335L61.1526 104.323Z" fill="url(#paint64_linear_2071_903)"/>
<path d="M60.692 103.382C60.3501 102.894 59.891 102.537 59.3393 102.337L55.3556 96.6479C55.9073 96.8475 56.3664 97.2047 56.7083 97.6928L60.692 103.382Z" fill="url(#paint65_linear_2071_903)"/>
<path d="M60.692 103.382C60.3501 102.894 59.891 102.537 59.3393 102.337L55.3556 96.6479C55.9073 96.8475 56.3664 97.2047 56.7083 97.6928L60.692 103.382Z" fill="url(#paint66_linear_2071_903)"/>
<path d="M7.35194 150.526C5.28205 144.071 4.08355 136.902 4.03009 128.937L0.0463867 123.248C0.0998463 131.213 1.29834 138.382 3.36823 144.837L7.35194 150.526Z" fill="url(#paint67_linear_2071_903)"/>
<path d="M53.3397 105.051C52.4806 106.146 51.8541 107.421 51.5529 108.688L47.5692 102.998C47.8703 101.732 48.4969 100.456 49.356 99.3618L53.3397 105.051Z" fill="url(#paint68_linear_2071_903)"/>
<path d="M53.3397 105.051C52.4806 106.146 51.8541 107.421 51.5529 108.688L47.5692 102.998C47.8703 101.732 48.4969 100.456 49.356 99.3618L53.3397 105.051Z" fill="url(#paint69_linear_2071_903)"/>
<path d="M59.3393 102.337C58.4779 102.026 57.4359 102.115 56.3657 102.591L52.382 96.9017C53.4522 96.4253 54.4942 96.3363 55.3556 96.6479L59.3393 102.337Z" fill="url(#paint70_linear_2071_903)"/>
<path d="M59.3393 102.337C58.4779 102.026 57.4359 102.115 56.3657 102.591L52.382 96.9017C53.4522 96.4253 54.4942 96.3363 55.3556 96.6479L59.3393 102.337Z" fill="url(#paint71_linear_2071_903)"/>
<path d="M56.3223 102.611C55.2447 103.101 54.1989 103.957 53.3398 105.051L49.3561 99.3619C50.2152 98.2673 51.261 97.4115 52.3386 96.9214L56.3223 102.611Z" fill="url(#paint72_linear_2071_903)"/>
<path d="M56.3223 102.611C55.2447 103.101 54.1989 103.957 53.3398 105.051L49.3561 99.3619C50.2152 98.2673 51.261 97.4115 52.3386 96.9214L56.3223 102.611Z" fill="url(#paint73_linear_2071_903)"/>
<path d="M56.3656 102.591L56.3221 102.611L52.3384 96.9212L52.3819 96.9019L56.3656 102.591Z" fill="url(#paint74_linear_2071_903)"/>
<path d="M56.3656 102.591L56.3221 102.611L52.3384 96.9212L52.3819 96.9019L56.3656 102.591Z" fill="url(#paint75_linear_2071_903)"/>
<path d="M4.03002 128.937C4.02902 128.75 4.021 128.568 4.021 128.381L0.0372925 122.691C0.0372925 122.879 0.0453114 123.061 0.0463138 123.247L4.03002 128.937Z" fill="url(#paint76_linear_2071_903)"/>
<path d="M4.021 128.38L4.02802 128.377L0.0443091 122.688L0.0372925 122.691L4.021 128.38Z" fill="url(#paint77_linear_2071_903)"/>
<path d="M130.738 19.907C147.058 12.6412 161.314 15.9512 168.989 26.9077L165.011 21.2264C157.337 10.2635 143.078 6.95006 126.755 14.2176L130.738 19.907Z" fill="url(#paint78_linear_2071_903)"/>
<path d="M84.2813 61.0093C86.8132 63.7834 92.089 61.4345 94.6213 56.4056L90.6376 50.7163C88.1053 55.7451 82.8295 58.0941 80.2975 55.32L84.2813 61.0093Z" fill="url(#paint79_linear_2071_903)"/>
<path d="M84.2813 61.0093C86.8132 63.7834 92.089 61.4345 94.6213 56.4056L90.6376 50.7163C88.1053 55.7451 82.8295 58.0941 80.2975 55.32L84.2813 61.0093Z" fill="url(#paint80_linear_2071_903)"/>
<path d="M94.6213 56.4053C102.641 40.4793 115.828 26.5452 130.738 19.9066L126.755 14.2173C111.844 20.8559 98.6569 34.79 90.6376 50.7159L94.6213 56.4053Z" fill="url(#paint81_linear_2071_903)"/>
<path d="M94.6213 56.4053C102.641 40.4793 115.828 26.5452 130.738 19.9066L126.755 14.2173C111.844 20.8559 98.6569 34.79 90.6376 50.7159L94.6213 56.4053Z" fill="url(#paint82_linear_2071_903)"/>
<path d="M3.99459 128.672C3.99459 100.319 22.5221 67.952 48.2521 56.5341L44.2575 50.8105C18.5275 62.2284 0 94.5953 0 122.948L3.99459 128.672Z" fill="url(#paint83_linear_2071_903)"/>
<path d="M3.99459 128.672C3.99459 100.319 22.5221 67.952 48.2521 56.5341L44.2575 50.8105C18.5275 62.2284 0 94.5953 0 122.948L3.99459 128.672Z" fill="url(#paint84_linear_2071_903)"/>
<path d="M48.165 56.6714C63.0749 50.0331 76.2624 52.2245 84.2813 61.0094L80.2976 55.3201C72.2787 46.5352 59.0912 44.3438 44.1813 50.9821L48.165 56.6714Z" fill="url(#paint85_linear_2071_903)"/>
<path d="M48.165 56.6714C63.0749 50.0331 76.2624 52.2245 84.2813 61.0094L80.2976 55.3201C72.2787 46.5352 59.0912 44.3438 44.1813 50.9821L48.165 56.6714Z" fill="url(#paint86_linear_2071_903)"/>
<path d="M130.738 19.7068C115.828 26.3454 102.641 40.3008 94.6214 56.2595C92.089 61.2986 86.8132 63.6476 84.2813 60.8632C76.2623 52.0456 63.0748 49.8329 48.1649 56.4712C22.505 67.8206 4.02801 100.057 4.02801 128.315L4.021 128.318C4.021 128.506 4.02902 128.688 4.03002 128.876C4.08348 136.862 5.28197 144.051 7.35186 150.526L34.9631 138.232C36.0699 137.74 37.1456 137.663 38.0223 138.014C38.899 138.365 39.5275 139.124 39.8095 140.173L42.0759 148.604L51.5529 108.629C51.8541 107.359 52.4806 106.082 53.3397 104.985C54.1988 103.888 55.2446 103.032 56.3222 102.541L56.3657 102.522C57.4358 102.046 58.4779 101.958 59.3392 102.271C60.2006 102.585 60.8361 103.283 61.1526 104.264L68.3757 126.644L76.8601 122.866C77.9197 122.395 78.9521 122.304 79.8089 122.606C80.6657 122.909 81.3028 123.59 81.6287 124.552L85.0507 134.646L88.9166 120.442C89.2535 119.204 89.8923 117.975 90.7433 116.927C91.5944 115.879 92.6149 115.065 93.6617 114.599L125.282 100.52C128.05 99.2881 130.294 100.752 130.294 103.79C130.294 106.828 128.05 110.289 125.282 111.522L97.2516 124.002L89.6763 151.834C89.3395 153.072 88.7007 154.301 87.8498 155.349C86.9988 156.397 85.9783 157.211 84.9315 157.677L84.8937 157.694C83.8405 158.154 82.8166 158.238 81.9673 157.932C81.118 157.627 80.4865 156.948 80.1625 155.992L73.2128 135.492L64.681 139.291C63.6108 139.767 62.5687 139.855 61.7072 139.542C60.8458 139.229 60.2102 138.53 59.8937 137.549L56.5157 127.082L46.65 168.695C46.347 169.974 45.7141 171.26 44.8464 172.361C43.9788 173.462 42.9232 174.319 41.8383 174.802L41.7742 174.83C40.6783 175.303 39.6172 175.366 38.7534 175.011C37.8896 174.655 37.2707 173.9 36.9916 172.861L31.1013 150.954L11.1448 159.839C14.6511 166.834 19.2443 172.833 24.4559 177.968C43.2089 196.444 69.9187 203.769 82.464 206.318C84.6191 206.755 87.073 206.408 89.5759 205.312C92.0788 204.216 94.5415 202.41 96.7133 200.077C109.323 186.532 135.755 155.911 154.408 120.11C165.574 98.6787 173.943 75.3931 174.899 52.8003C174.959 51.3737 175 49.9488 175 48.5282C175 21.7268 155.183 8.82315 130.738 19.7068Z" fill="url(#paint87_linear_2071_903)"/>
<path d="M7.31097 154.488V150.422C20.9853 143.403 35.458 137.628 36.5547 137.628L39.6618 144.939L42.0379 148.594L51.3048 107.965C52.6572 102.251 56.5516 102.191 58.3047 101.987L64.641 121.228L68.54 126.479C73.3485 123.377 77.5755 122.479 79.1408 122.275L83.3446 130.134L84.9896 134.521L89.1934 119.899C89.1934 118.593 91.201 115.273 93.5799 114.233L125.748 100.342C125.748 101.363 123.189 105.116 123.189 104.912C123.189 104.748 104.337 113.134 94.5067 117.963C93.4548 121.717 89.6856 136.259 87.9325 143.061C86.5801 153.018 81.1495 152.046 78.9581 152.25L73.6571 137.144L69.7125 130.818C66.8575 132.777 61.6604 134.619 59.2186 135.435L56.6597 127.393L52.4318 121.432L42.769 163.399C41.5668 167.806 37.6969 169.09 36.0064 169.431L31.2543 151.519L27.2427 145.34L7.31097 154.488Z" fill="url(#paint88_linear_2071_903)"/>
<path d="M7.67645 154.305V150.24C21.3508 143.22 35.8235 137.445 36.9202 137.445L40.0273 144.756L42.4034 148.412L51.6702 107.782C53.0226 102.069 56.917 102.009 58.6702 101.805L65.0065 121.045L68.9055 126.296C73.714 123.195 77.941 122.296 79.5063 122.092L83.7101 129.952L85.355 134.338L89.5588 119.716C89.5588 118.41 91.5665 115.09 93.9454 114.05L126.113 100.16C126.113 101.18 123.555 104.933 123.555 104.729C123.555 104.566 104.702 112.951 94.8722 117.78C93.8203 121.535 90.0511 136.077 88.298 142.878C86.9456 152.836 81.5149 151.863 79.3235 152.067L74.0226 136.961L70.078 130.635C67.2229 132.594 62.0259 134.436 59.584 135.252L57.0252 127.21L52.7972 121.249L43.1344 163.216C41.9323 167.624 38.0624 168.908 36.3718 169.248L31.6197 151.336L27.6082 145.158L7.67645 154.305Z" fill="url(#paint89_linear_2071_903)"/>
<path d="M103.026 158.13C101.674 168.087 96.2429 167.114 94.0515 167.318L79.3235 152.067C81.5149 151.863 86.9456 152.836 88.298 142.878L103.026 158.13Z" fill="url(#paint90_linear_2071_903)"/>
<path d="M140.841 115.411C140.841 116.431 138.283 120.184 138.283 119.98L123.562 104.737C123.557 104.738 123.555 104.735 123.555 104.729L123.562 104.737C123.713 104.699 126.113 101.148 126.113 100.16L140.841 115.411Z" fill="url(#paint91_linear_2071_903)"/>
<path d="M109.6 133.032C108.548 136.786 104.779 151.328 103.026 158.13L88.298 142.878C90.0511 136.077 93.8203 121.535 94.8722 117.78L109.6 133.032Z" fill="url(#paint92_linear_2071_903)"/>
<path d="M94.0515 167.318L88.7505 152.212L74.0226 136.961L79.3235 152.067L94.0515 167.318Z" fill="url(#paint93_linear_2071_903)"/>
<path d="M138.281 119.978C138.063 119.915 119.373 128.231 109.6 133.032L94.8722 117.78C104.702 112.951 123.555 104.566 123.555 104.729L138.281 119.978C138.282 119.979 138.283 119.979 138.283 119.98L138.281 119.978Z" fill="url(#paint94_linear_2071_903)"/>
<path d="M98.438 145.203L100.083 149.589L85.355 134.338L83.7101 129.952L98.438 145.203Z" fill="url(#paint95_linear_2071_903)"/>
<path d="M108.673 129.302L140.841 115.411L126.113 100.16L93.9454 114.05L108.673 129.302Z" fill="url(#paint96_linear_2071_903)"/>
<path d="M100.083 149.589L104.287 134.968L89.5588 119.716L85.355 134.338L100.083 149.589Z" fill="url(#paint97_linear_2071_903)"/>
<path d="M104.287 134.968C104.287 133.662 106.294 130.341 108.673 129.302L93.9454 114.05C91.5665 115.09 89.5588 118.41 89.5588 119.716L104.287 134.968Z" fill="url(#paint98_linear_2071_903)"/>
<path d="M94.2342 137.344L98.438 145.203L83.7101 129.952L79.5063 122.092L94.2342 137.344Z" fill="url(#paint99_linear_2071_903)"/>
<path d="M57.8624 178.468C56.6602 182.875 52.7903 184.159 51.0998 184.499L36.3718 169.248C38.0624 168.908 41.9323 167.624 43.1344 163.216L57.8624 178.468Z" fill="url(#paint100_linear_2071_903)"/>
<path d="M88.7505 152.212L84.8059 145.887L70.078 130.635L74.0226 136.961L88.7505 152.212Z" fill="url(#paint101_linear_2071_903)"/>
<path d="M83.6334 141.547C88.442 138.446 92.669 137.548 94.2342 137.344L79.5063 122.092C77.941 122.296 73.714 123.195 68.9055 126.296L83.6334 141.547Z" fill="url(#paint102_linear_2071_903)"/>
<path d="M84.8059 145.887C81.9508 147.845 76.7538 149.687 74.312 150.503L59.584 135.252C62.0259 134.436 67.2229 132.594 70.078 130.635L84.8059 145.887Z" fill="url(#paint103_linear_2071_903)"/>
<path d="M51.0998 184.499L46.3477 166.587L31.6197 151.336L36.3718 169.248L51.0998 184.499Z" fill="url(#paint104_linear_2071_903)"/>
<path d="M67.5252 136.5L57.8624 178.468L43.1344 163.216L52.7972 121.249L67.5252 136.5Z" fill="url(#paint105_linear_2071_903)"/>
<path d="M79.7343 136.296L83.6334 141.547L68.9055 126.296L65.0065 121.045L79.7343 136.296Z" fill="url(#paint106_linear_2071_903)"/>
<path d="M74.312 150.503L71.7531 142.461L57.0252 127.21L59.584 135.252L74.312 150.503Z" fill="url(#paint107_linear_2071_903)"/>
<path d="M54.7552 160.008L57.1313 163.663L42.4034 148.412L40.0273 144.756L54.7552 160.008Z" fill="url(#paint108_linear_2071_903)"/>
<path d="M51.6481 152.697L54.7552 160.008L40.0273 144.756L36.9202 137.445L51.6481 152.697Z" fill="url(#paint109_linear_2071_903)"/>
<path d="M71.7531 142.461L67.5252 136.5L52.7972 121.249L57.0252 127.21L71.7531 142.461Z" fill="url(#paint110_linear_2071_903)"/>
<path d="M46.3477 166.587L42.3361 160.409L27.6082 145.158L31.6197 151.336L46.3477 166.587Z" fill="url(#paint111_linear_2071_903)"/>
<path d="M57.1313 163.663L66.3982 123.033L51.6702 107.782L42.4034 148.412L57.1313 163.663Z" fill="url(#paint112_linear_2071_903)"/>
<path d="M73.3981 117.056L79.7343 136.296L65.0065 121.045L58.6702 101.805L73.3981 117.056Z" fill="url(#paint113_linear_2071_903)"/>
<path d="M42.3361 160.409L22.4044 169.556L7.67645 154.305L27.6082 145.158L42.3361 160.409Z" fill="url(#paint114_linear_2071_903)"/>
<path d="M22.4044 165.491C36.0787 158.471 50.5515 152.697 51.6481 152.697L36.9202 137.445C35.8235 137.445 21.3508 143.22 7.67645 150.24L22.4044 165.491Z" fill="url(#paint115_linear_2071_903)"/>
<path d="M22.4044 169.556V165.491L7.67645 150.24V154.305L22.4044 169.556Z" fill="url(#paint116_linear_2071_903)"/>
<path d="M66.3982 123.033C67.7506 117.32 71.645 117.26 73.3981 117.056L58.6702 101.805C56.917 102.009 53.0226 102.069 51.6702 107.782L66.3982 123.033Z" fill="url(#paint117_linear_2071_903)"/>
<path d="M22.4044 169.556V165.491C36.0787 158.471 50.5515 152.697 51.6481 152.697L54.7552 160.008L57.1313 163.663L66.3982 123.033C67.7506 117.32 71.645 117.26 73.3981 117.056L79.7343 136.296L83.6334 141.547C88.442 138.446 92.669 137.548 94.2342 137.344L98.438 145.203L100.083 149.589L104.287 134.968C104.287 133.662 106.294 130.341 108.673 129.302L140.841 115.411C140.841 116.431 138.283 120.184 138.283 119.98C138.283 119.817 119.43 128.202 109.6 133.032C108.548 136.786 104.779 151.328 103.026 158.13C101.674 168.087 96.2429 167.114 94.0515 167.318L88.7505 152.212L84.8059 145.887C81.9508 147.845 76.7538 149.687 74.312 150.503L71.7531 142.461L67.5252 136.5L57.8624 178.468C56.6602 182.875 52.7903 184.159 51.0998 184.499L46.3477 166.587L42.3361 160.409L22.4044 169.556Z" fill="url(#paint118_linear_2071_903)"/>
<defs>
<linearGradient id="paint0_linear_2071_903" x1="174.178" y1="85.1799" x2="20.7693" y2="146.893" gradientUnits="userSpaceOnUse">
<stop stop-color="#FDF882"/>
<stop offset="1" stop-color="#F6F170"/>
</linearGradient>
<linearGradient id="paint1_linear_2071_903" x1="86.3246" y1="200.427" x2="93.571" y2="195.353" gradientUnits="userSpaceOnUse">
<stop stop-color="#050504"/>
<stop offset="0.5" stop-color="#161413"/>
<stop offset="1" stop-color="#201D1B"/>
</linearGradient>
<linearGradient id="paint2_linear_2071_903" x1="81.1872" y1="204.259" x2="86.4345" y2="200.584" gradientUnits="userSpaceOnUse">
<stop/>
<stop offset="0.5"/>
<stop offset="1" stop-color="#050504"/>
</linearGradient>
<linearGradient id="paint3_linear_2071_903" x1="72.913" y1="165.851" x2="149.132" y2="112.482" gradientUnits="userSpaceOnUse">
<stop stop-color="#201D1B"/>
<stop offset="0.5" stop-color="#1D1A18"/>
<stop offset="1" stop-color="#0A0909"/>
</linearGradient>
<linearGradient id="paint4_linear_2071_903" x1="38.2507" y1="197.576" x2="63.922" y2="179.601" gradientUnits="userSpaceOnUse">
<stop/>
<stop offset="0.5"/>
<stop offset="1"/>
</linearGradient>
<linearGradient id="paint5_linear_2071_903" x1="85.0067" y1="154.126" x2="81.1939" y2="155.329" gradientUnits="userSpaceOnUse">
<stop stop-color="#FDF882"/>
<stop offset="1" stop-color="#F6F170"/>
</linearGradient>
<linearGradient id="paint6_linear_2071_903" x1="87.979" y1="152.71" x2="81.7146" y2="155.124" gradientUnits="userSpaceOnUse">
<stop stop-color="#FDF882"/>
<stop offset="1" stop-color="#F6F170"/>
</linearGradient>
<linearGradient id="paint7_linear_2071_903" x1="85.0231" y1="154.301" x2="79.2892" y2="157.204" gradientUnits="userSpaceOnUse">
<stop stop-color="#FDF882"/>
<stop offset="1" stop-color="#F6F170"/>
</linearGradient>
<linearGradient id="paint8_linear_2071_903" x1="89.7851" y1="149.668" x2="84.1766" y2="151.254" gradientUnits="userSpaceOnUse">
<stop stop-color="#FDF882"/>
<stop offset="1" stop-color="#F6F170"/>
</linearGradient>
<linearGradient id="paint9_linear_2071_903" x1="82.0674" y1="153.741" x2="77.1182" y2="155.499" gradientUnits="userSpaceOnUse">
<stop stop-color="#FDF882"/>
<stop offset="1" stop-color="#F6F170"/>
</linearGradient>
<linearGradient id="paint10_linear_2071_903" x1="80.6874" y1="152.792" x2="76.458" y2="154.067" gradientUnits="userSpaceOnUse">
<stop stop-color="#FDF882"/>
<stop offset="1" stop-color="#F6F170"/>
</linearGradient>
<linearGradient id="paint11_linear_2071_903" x1="41.9141" y1="171.26" x2="38.0795" y2="172.475" gradientUnits="userSpaceOnUse">
<stop stop-color="#FDF882"/>
<stop offset="1" stop-color="#F6F170"/>
</linearGradient>
<linearGradient id="paint12_linear_2071_903" x1="44.9773" y1="169.772" x2="38.6298" y2="172.216" gradientUnits="userSpaceOnUse">
<stop stop-color="#FDF882"/>
<stop offset="1" stop-color="#F6F170"/>
</linearGradient>
<linearGradient id="paint13_linear_2071_903" x1="75.961" y1="132.146" x2="94.0906" y2="119.452" gradientUnits="userSpaceOnUse">
<stop/>
<stop offset="1"/>
</linearGradient>
<linearGradient id="paint14_linear_2071_903" x1="97.4678" y1="131.458" x2="85.6997" y2="133.278" gradientUnits="userSpaceOnUse">
<stop stop-color="#FDF882"/>
<stop offset="1" stop-color="#F6F170"/>
</linearGradient>
<linearGradient id="paint15_linear_2071_903" x1="41.9053" y1="171.439" x2="36.1299" y2="174.408" gradientUnits="userSpaceOnUse">
<stop stop-color="#FDF882"/>
<stop offset="1" stop-color="#F6F170"/>
</linearGradient>
<linearGradient id="paint16_linear_2071_903" x1="46.7584" y1="166.594" x2="41.1557" y2="168.147" gradientUnits="userSpaceOnUse">
<stop stop-color="#F6F170"/>
<stop offset="1" stop-color="#F6F170"/>
</linearGradient>
<linearGradient id="paint17_linear_2071_903" x1="125.89" y1="79.2898" x2="171.193" y2="47.5685" gradientUnits="userSpaceOnUse">
<stop stop-color="#0A0909"/>
<stop offset="0.5"/>
<stop offset="1"/>
</linearGradient>
<linearGradient id="paint18_linear_2071_903" x1="38.8511" y1="170.854" x2="33.9965" y2="172.55" gradientUnits="userSpaceOnUse">
<stop stop-color="#FDF882"/>
<stop offset="1" stop-color="#F6F170"/>
</linearGradient>
<linearGradient id="paint19_linear_2071_903" x1="34.1126" y1="169.053" x2="34.2994" y2="168.922" gradientUnits="userSpaceOnUse">
<stop/>
<stop offset="0.5"/>
<stop offset="1"/>
</linearGradient>
<linearGradient id="paint20_linear_2071_903" x1="37.5955" y1="169.768" x2="33.2772" y2="171.043" gradientUnits="userSpaceOnUse">
<stop stop-color="#FDF882"/>
<stop offset="1" stop-color="#F6F170"/>
</linearGradient>
<linearGradient id="paint21_linear_2071_903" x1="67.4255" y1="137.702" x2="72.3647" y2="134.243" gradientUnits="userSpaceOnUse">
<stop/>
<stop offset="1"/>
</linearGradient>
<linearGradient id="paint22_linear_2071_903" x1="80.3672" y1="140.058" x2="69.356" y2="142.121" gradientUnits="userSpaceOnUse">
<stop stop-color="#FDF882"/>
<stop offset="1" stop-color="#F6F170"/>
</linearGradient>
<linearGradient id="paint23_linear_2071_903" x1="120.252" y1="104.302" x2="127.241" y2="99.4087" gradientUnits="userSpaceOnUse">
<stop stop-color="#050505"/>
<stop offset="1"/>
</linearGradient>
<linearGradient id="paint24_linear_2071_903" x1="130.462" y1="103.361" x2="121.861" y2="105.944" gradientUnits="userSpaceOnUse">
<stop stop-color="#FDF882"/>
<stop offset="1" stop-color="#F6F170"/>
</linearGradient>
<linearGradient id="paint25_linear_2071_903" x1="96.5855" y1="123.015" x2="121.258" y2="105.739" gradientUnits="userSpaceOnUse">
<stop stop-color="#050505"/>
<stop offset="1" stop-color="#050505"/>
</linearGradient>
<linearGradient id="paint26_linear_2071_903" x1="125.881" y1="112.955" x2="105.305" y2="129.182" gradientUnits="userSpaceOnUse">
<stop stop-color="#FDF882"/>
<stop offset="1" stop-color="#F6F170"/>
</linearGradient>
<linearGradient id="paint27_linear_2071_903" x1="126.268" y1="98.0182" x2="126.967" y2="97.529" gradientUnits="userSpaceOnUse">
<stop/>
<stop offset="1"/>
</linearGradient>
<linearGradient id="paint28_linear_2071_903" x1="130.381" y1="98.829" x2="125.817" y2="99.9984" gradientUnits="userSpaceOnUse">
<stop stop-color="#FDF882"/>
<stop offset="1" stop-color="#F6F170"/>
</linearGradient>
<linearGradient id="paint29_linear_2071_903" x1="123.477" y1="97.9354" x2="126.009" y2="96.1622" gradientUnits="userSpaceOnUse">
<stop stop-color="#050505"/>
<stop offset="0.5"/>
<stop offset="1"/>
</linearGradient>
<linearGradient id="paint30_linear_2071_903" x1="76.6598" y1="122.613" x2="85.9122" y2="116.134" gradientUnits="userSpaceOnUse">
<stop/>
<stop offset="1"/>
</linearGradient>
<linearGradient id="paint31_linear_2071_903" x1="85.1894" y1="125.05" x2="77.7967" y2="126.605" gradientUnits="userSpaceOnUse">
<stop stop-color="#FDF882"/>
<stop offset="1" stop-color="#F6F170"/>
</linearGradient>
<linearGradient id="paint32_linear_2071_903" x1="15.5412" y1="167.276" x2="16.5429" y2="166.574" gradientUnits="userSpaceOnUse">
<stop/>
<stop offset="0.5"/>
<stop offset="1"/>
</linearGradient>
<linearGradient id="paint33_linear_2071_903" x1="23.639" y1="153.698" x2="29.9493" y2="149.279" gradientUnits="userSpaceOnUse">
<stop/>
<stop offset="1"/>
</linearGradient>
<linearGradient id="paint34_linear_2071_903" x1="37.1763" y1="156.082" x2="27.1418" y2="157.692" gradientUnits="userSpaceOnUse">
<stop stop-color="#FDF882"/>
<stop offset="1" stop-color="#F6F170"/>
</linearGradient>
<linearGradient id="paint35_linear_2071_903" x1="62.5019" y1="136.141" x2="70.0116" y2="130.883" gradientUnits="userSpaceOnUse">
<stop stop-color="#050505"/>
<stop offset="1" stop-color="#050505"/>
</linearGradient>
<linearGradient id="paint36_linear_2071_903" x1="73.4471" y1="133.503" x2="63.7725" y2="139.215" gradientUnits="userSpaceOnUse">
<stop stop-color="#FDF882"/>
<stop offset="1" stop-color="#F6F170"/>
</linearGradient>
<linearGradient id="paint37_linear_2071_903" x1="93.2743" y1="114.038" x2="121.107" y2="94.5501" gradientUnits="userSpaceOnUse">
<stop stop-color="#050505"/>
<stop offset="1" stop-color="#050505"/>
</linearGradient>
<linearGradient id="paint38_linear_2071_903" x1="56.7748" y1="139.994" x2="42.5824" y2="141.857" gradientUnits="userSpaceOnUse">
<stop stop-color="#FDF882"/>
<stop offset="1" stop-color="#F6F170"/>
</linearGradient>
<linearGradient id="paint39_linear_2071_903" x1="64.8111" y1="135.977" x2="59.0477" y2="138.907" gradientUnits="userSpaceOnUse">
<stop stop-color="#FDF882"/>
<stop offset="1" stop-color="#F6F170"/>
</linearGradient>
<linearGradient id="paint40_linear_2071_903" x1="61.807" y1="135.426" x2="56.8656" y2="137.178" gradientUnits="userSpaceOnUse">
<stop stop-color="#FDF882"/>
<stop offset="1" stop-color="#F6F170"/>
</linearGradient>
<linearGradient id="paint41_linear_2071_903" x1="84.9513" y1="114.762" x2="87.8252" y2="112.75" gradientUnits="userSpaceOnUse">
<stop/>
<stop offset="0.5" stop-color="#0A0909"/>
<stop offset="1" stop-color="#1A1816"/>
</linearGradient>
<linearGradient id="paint42_linear_2071_903" x1="81.7115" y1="120.549" x2="77.4819" y2="121.823" gradientUnits="userSpaceOnUse">
<stop stop-color="#FDF882"/>
<stop offset="1" stop-color="#F6F170"/>
</linearGradient>
<linearGradient id="paint43_linear_2071_903" x1="87.6465" y1="112.495" x2="90.6974" y2="110.359" gradientUnits="userSpaceOnUse">
<stop stop-color="#1A1816"/>
<stop offset="0.5" stop-color="#191716"/>
<stop offset="1" stop-color="#050505"/>
</linearGradient>
<linearGradient id="paint44_linear_2071_903" x1="60.4375" y1="134.444" x2="56.1872" y2="135.719" gradientUnits="userSpaceOnUse">
<stop stop-color="#FDF882"/>
<stop offset="1" stop-color="#F6F170"/>
</linearGradient>
<linearGradient id="paint45_linear_2071_903" x1="77.3628" y1="119.102" x2="77.7922" y2="118.801" gradientUnits="userSpaceOnUse">
<stop/>
<stop offset="0.5"/>
<stop offset="1"/>
</linearGradient>
<linearGradient id="paint46_linear_2071_903" x1="74.6595" y1="119.715" x2="76.7616" y2="118.243" gradientUnits="userSpaceOnUse">
<stop stop-color="#050505"/>
<stop offset="0.5"/>
<stop offset="1"/>
</linearGradient>
<linearGradient id="paint47_linear_2071_903" x1="66.1929" y1="123.518" x2="73.6608" y2="118.289" gradientUnits="userSpaceOnUse">
<stop stop-color="#050505"/>
<stop offset="1" stop-color="#050505"/>
</linearGradient>
<linearGradient id="paint48_linear_2071_903" x1="13.9413" y1="158.629" x2="13.0106" y2="163.665" gradientUnits="userSpaceOnUse">
<stop stop-color="#C88D19"/>
<stop offset="1" stop-color="#C88D19"/>
</linearGradient>
<linearGradient id="paint49_linear_2071_903" x1="170.085" y1="45.9856" x2="172.154" y2="44.5362" gradientUnits="userSpaceOnUse">
<stop/>
<stop offset="1"/>
</linearGradient>
<linearGradient id="paint50_linear_2071_903" x1="52.0067" y1="126.258" x2="54.6432" y2="124.412" gradientUnits="userSpaceOnUse">
<stop/>
<stop offset="1"/>
</linearGradient>
<linearGradient id="paint51_linear_2071_903" x1="60.0314" y1="127.749" x2="52.6649" y2="129.255" gradientUnits="userSpaceOnUse">
<stop stop-color="#FDF882"/>
<stop offset="1" stop-color="#F6F170"/>
</linearGradient>
<linearGradient id="paint52_linear_2071_903" x1="42.1929" y1="140.026" x2="35.9245" y2="141.27" gradientUnits="userSpaceOnUse">
<stop stop-color="#FDF882"/>
<stop offset="1" stop-color="#F6F170"/>
</linearGradient>
<linearGradient id="paint53_linear_2071_903" x1="31.5493" y1="150.977" x2="15.3492" y2="162.887" gradientUnits="userSpaceOnUse">
<stop stop-color="#FDF882"/>
<stop offset="1" stop-color="#F6F170"/>
</linearGradient>
<linearGradient id="paint54_linear_2071_903" x1="36.4113" y1="135.309" x2="36.5979" y2="135.178" gradientUnits="userSpaceOnUse">
<stop/>
<stop offset="0.5"/>
<stop offset="1"/>
</linearGradient>
<linearGradient id="paint55_linear_2071_903" x1="39.8939" y1="136.024" x2="35.5758" y2="137.299" gradientUnits="userSpaceOnUse">
<stop stop-color="#FDF882"/>
<stop offset="1" stop-color="#F6F170"/>
</linearGradient>
<linearGradient id="paint56_linear_2071_903" x1="35.5447" y1="134.473" x2="35.9196" y2="134.21" gradientUnits="userSpaceOnUse">
<stop/>
<stop offset="0.5"/>
<stop offset="1"/>
</linearGradient>
<linearGradient id="paint57_linear_2071_903" x1="32.794" y1="135.135" x2="34.9509" y2="133.624" gradientUnits="userSpaceOnUse">
<stop stop-color="#050505"/>
<stop offset="0.5"/>
<stop offset="1"/>
</linearGradient>
<linearGradient id="paint58_linear_2071_903" x1="51.8048" y1="120.951" x2="38.0138" y2="122.774" gradientUnits="userSpaceOnUse">
<stop stop-color="#FDF882"/>
<stop offset="1" stop-color="#F6F170"/>
</linearGradient>
<linearGradient id="paint59_linear_2071_903" x1="68.5854" y1="109.666" x2="57.2662" y2="111.693" gradientUnits="userSpaceOnUse">
<stop stop-color="#EEE731"/>
<stop offset="1" stop-color="#EEE731"/>
</linearGradient>
<linearGradient id="paint60_linear_2071_903" x1="68.5854" y1="109.666" x2="57.2662" y2="111.693" gradientUnits="userSpaceOnUse">
<stop stop-color="#FDF882"/>
<stop offset="1" stop-color="#F6F170"/>
</linearGradient>
<linearGradient id="paint61_linear_2071_903" x1="6.65319" y1="149.528" x2="30.9566" y2="132.51" gradientUnits="userSpaceOnUse">
<stop stop-color="#050505"/>
<stop offset="1" stop-color="#050505"/>
</linearGradient>
<linearGradient id="paint62_linear_2071_903" x1="161.717" y1="29.6302" x2="167.875" y2="25.3179" gradientUnits="userSpaceOnUse">
<stop/>
<stop offset="1"/>
</linearGradient>
<linearGradient id="paint63_linear_2071_903" x1="57.85" y1="99.6062" x2="57.9828" y2="99.5132" gradientUnits="userSpaceOnUse">
<stop/>
<stop offset="0.5"/>
<stop offset="1"/>
</linearGradient>
<linearGradient id="paint64_linear_2071_903" x1="61.2358" y1="100.305" x2="56.9854" y2="101.58" gradientUnits="userSpaceOnUse">
<stop stop-color="#FDF882"/>
<stop offset="1" stop-color="#F6F170"/>
</linearGradient>
<linearGradient id="paint65_linear_2071_903" x1="56.886" y1="98.8336" x2="57.3028" y2="98.5418" gradientUnits="userSpaceOnUse">
<stop/>
<stop offset="0.5"/>
<stop offset="1"/>
</linearGradient>
<linearGradient id="paint66_linear_2071_903" x1="60.7919" y1="99.301" x2="55.8506" y2="101.054" gradientUnits="userSpaceOnUse">
<stop stop-color="#FDF882"/>
<stop offset="1" stop-color="#F6F170"/>
</linearGradient>
<linearGradient id="paint67_linear_2071_903" x1="2.92435" y1="148.229" x2="-4.77188" y2="143.304" gradientUnits="userSpaceOnUse">
<stop stop-color="#D39213"/>
<stop offset="1" stop-color="#F3B335"/>
</linearGradient>
<linearGradient id="paint68_linear_2071_903" x1="47.5155" y1="102.922" x2="50.423" y2="100.886" gradientUnits="userSpaceOnUse">
<stop/>
<stop offset="0.5" stop-color="#080807"/>
<stop offset="1" stop-color="#191615"/>
</linearGradient>
<linearGradient id="paint69_linear_2071_903" x1="53.4476" y1="103.036" x2="47.8608" y2="104.583" gradientUnits="userSpaceOnUse">
<stop stop-color="#FDF882"/>
<stop offset="1" stop-color="#F6F170"/>
</linearGradient>
<linearGradient id="paint70_linear_2071_903" x1="54.1723" y1="99.4584" x2="56.2868" y2="97.9778" gradientUnits="userSpaceOnUse">
<stop stop-color="#050505"/>
<stop offset="0.5"/>
<stop offset="1"/>
</linearGradient>
<linearGradient id="paint71_linear_2071_903" x1="59.4695" y1="98.8787" x2="53.7062" y2="101.808" gradientUnits="userSpaceOnUse">
<stop stop-color="#FDF882"/>
<stop offset="1" stop-color="#F6F170"/>
</linearGradient>
<linearGradient id="paint72_linear_2071_903" x1="50.2072" y1="100.578" x2="53.3552" y2="98.3733" gradientUnits="userSpaceOnUse">
<stop stop-color="#191615"/>
<stop offset="0.5" stop-color="#1B1817"/>
<stop offset="1" stop-color="#060605"/>
</linearGradient>
<linearGradient id="paint73_linear_2071_903" x1="56.4527" y1="100.124" x2="50.1219" y2="102.552" gradientUnits="userSpaceOnUse">
<stop stop-color="#FDF882"/>
<stop offset="1" stop-color="#F6F170"/>
</linearGradient>
<linearGradient id="paint74_linear_2071_903" x1="53.4843" y1="98.5576" x2="53.5225" y2="98.5309" gradientUnits="userSpaceOnUse">
<stop stop-color="#050505"/>
<stop offset="1" stop-color="#050505"/>
</linearGradient>
<linearGradient id="paint75_linear_2071_903" x1="56.4409" y1="99.1509" x2="52.6234" y2="100.356" gradientUnits="userSpaceOnUse">
<stop stop-color="#FDF882"/>
<stop offset="1" stop-color="#F6F170"/>
</linearGradient>
<linearGradient id="paint76_linear_2071_903" x1="2.3855" y1="126.266" x2="0.923263" y2="124.866" gradientUnits="userSpaceOnUse">
<stop stop-color="#F3B335"/>
<stop offset="1" stop-color="#F3B335"/>
</linearGradient>
<linearGradient id="paint77_linear_2071_903" x1="1.18032" y1="124.324" x2="1.18649" y2="124.319" gradientUnits="userSpaceOnUse">
<stop stop-color="#050505"/>
<stop offset="1" stop-color="#050505"/>
</linearGradient>
<linearGradient id="paint78_linear_2071_903" x1="156.336" y1="18.9521" x2="133.968" y2="8.72366" gradientUnits="userSpaceOnUse">
<stop stop-color="#FFFDC8"/>
<stop offset="1" stop-color="#F5F2A3"/>
</linearGradient>
<linearGradient id="paint79_linear_2071_903" x1="82.2424" y1="58.0976" x2="91.3437" y2="51.7247" gradientUnits="userSpaceOnUse">
<stop/>
<stop offset="0.5" stop-color="#050505"/>
<stop offset="1" stop-color="#090808"/>
</linearGradient>
<linearGradient id="paint80_linear_2071_903" x1="90.3288" y1="56.6756" x2="82.4608" y2="57.2976" gradientUnits="userSpaceOnUse">
<stop stop-color="#F5F05F"/>
<stop offset="1" stop-color="#F3B335"/>
</linearGradient>
<linearGradient id="paint81_linear_2071_903" x1="84.9893" y1="42.6493" x2="126.373" y2="13.6721" gradientUnits="userSpaceOnUse">
<stop stop-color="#090808"/>
<stop offset="0.5" stop-color="#201D1B"/>
<stop offset="1" stop-color="#050505"/>
</linearGradient>
<linearGradient id="paint82_linear_2071_903" x1="118.721" y1="36.1294" x2="93.771" y2="31.8752" gradientUnits="userSpaceOnUse">
<stop stop-color="#F5F2A3"/>
<stop offset="1" stop-color="#F5F05F"/>
</linearGradient>
<linearGradient id="paint83_linear_2071_903" x1="-19.9448" y1="94.3709" x2="43.672" y2="49.9716" gradientUnits="userSpaceOnUse">
<stop/>
<stop offset="1" stop-color="#050505"/>
</linearGradient>
<linearGradient id="paint84_linear_2071_903" x1="34.1427" y1="90.274" x2="3.94119" y2="88.055" gradientUnits="userSpaceOnUse">
<stop stop-color="#F3B335"/>
<stop offset="1" stop-color="#F3B335"/>
</linearGradient>
<linearGradient id="paint85_linear_2071_903" x1="53.8626" y1="64.8085" x2="76.0588" y2="49.2665" gradientUnits="userSpaceOnUse">
<stop stop-color="#050505"/>
<stop offset="0.5"/>
<stop offset="1"/>
</linearGradient>
<linearGradient id="paint86_linear_2071_903" x1="72.5556" y1="54.1552" x2="49.9645" y2="46.4276" gradientUnits="userSpaceOnUse">
<stop stop-color="#F3B335"/>
<stop offset="1" stop-color="#F3B335"/>
</linearGradient>
<linearGradient id="paint87_linear_2071_903" x1="170.523" y1="77.2796" x2="18.4095" y2="122.734" gradientUnits="userSpaceOnUse">
<stop stop-color="#F6DF7F"/>
<stop offset="0.463276" stop-color="#F5D962"/>
<stop offset="1" stop-color="#E3A01D"/>
</linearGradient>
<linearGradient id="paint88_linear_2071_903" x1="114.229" y1="111.66" x2="71.0671" y2="176.694" gradientUnits="userSpaceOnUse">
<stop stop-color="#FFFDC8"/>
<stop offset="1" stop-color="#FAF57A"/>
</linearGradient>
<linearGradient id="paint89_linear_2071_903" x1="95.2248" y1="145.853" x2="86.6157" y2="101.665" gradientUnits="userSpaceOnUse">
<stop offset="0.0192308" stop-color="#F6F170" stop-opacity="0"/>
<stop offset="1" stop-color="#F6F170" stop-opacity="0.5"/>
</linearGradient>
<linearGradient id="paint90_linear_2071_903" x1="95.2248" y1="145.853" x2="86.6157" y2="101.665" gradientUnits="userSpaceOnUse">
<stop offset="0.0192308" stop-color="#F6F170" stop-opacity="0"/>
<stop offset="1" stop-color="#F6F170" stop-opacity="0.5"/>
</linearGradient>
<linearGradient id="paint91_linear_2071_903" x1="95.2248" y1="145.853" x2="86.6157" y2="101.665" gradientUnits="userSpaceOnUse">
<stop offset="0.0192308" stop-color="#F6F170" stop-opacity="0"/>
<stop offset="1" stop-color="#F6F170" stop-opacity="0.5"/>
</linearGradient>
<linearGradient id="paint92_linear_2071_903" x1="95.2248" y1="145.853" x2="86.6157" y2="101.665" gradientUnits="userSpaceOnUse">
<stop offset="0.0192308" stop-color="#F6F170" stop-opacity="0"/>
<stop offset="1" stop-color="#F6F170" stop-opacity="0.5"/>
</linearGradient>
<linearGradient id="paint93_linear_2071_903" x1="95.2248" y1="145.853" x2="86.6157" y2="101.665" gradientUnits="userSpaceOnUse">
<stop offset="0.0192308" stop-color="#F6F170" stop-opacity="0"/>
<stop offset="1" stop-color="#F6F170" stop-opacity="0.5"/>
</linearGradient>
<linearGradient id="paint94_linear_2071_903" x1="95.2248" y1="145.853" x2="86.6157" y2="101.665" gradientUnits="userSpaceOnUse">
<stop offset="0.0192308" stop-color="#F6F170" stop-opacity="0"/>
<stop offset="1" stop-color="#F6F170" stop-opacity="0.5"/>
</linearGradient>
<linearGradient id="paint95_linear_2071_903" x1="95.2248" y1="145.853" x2="86.6157" y2="101.665" gradientUnits="userSpaceOnUse">
<stop offset="0.0192308" stop-color="#F6F170" stop-opacity="0"/>
<stop offset="1" stop-color="#F6F170" stop-opacity="0.5"/>
</linearGradient>
<linearGradient id="paint96_linear_2071_903" x1="95.2248" y1="145.853" x2="86.6157" y2="101.665" gradientUnits="userSpaceOnUse">
<stop offset="0.0192308" stop-color="#F6F170" stop-opacity="0"/>
<stop offset="1" stop-color="#F6F170" stop-opacity="0.5"/>
</linearGradient>
<linearGradient id="paint97_linear_2071_903" x1="95.2248" y1="145.853" x2="86.6157" y2="101.665" gradientUnits="userSpaceOnUse">
<stop offset="0.0192308" stop-color="#F6F170" stop-opacity="0"/>
<stop offset="1" stop-color="#F6F170" stop-opacity="0.5"/>
</linearGradient>
<linearGradient id="paint98_linear_2071_903" x1="95.2248" y1="145.853" x2="86.6157" y2="101.665" gradientUnits="userSpaceOnUse">
<stop offset="0.0192308" stop-color="#F6F170" stop-opacity="0"/>
<stop offset="1" stop-color="#F6F170" stop-opacity="0.5"/>
</linearGradient>
<linearGradient id="paint99_linear_2071_903" x1="95.2248" y1="145.853" x2="86.6157" y2="101.665" gradientUnits="userSpaceOnUse">
<stop offset="0.0192308" stop-color="#F6F170" stop-opacity="0"/>
<stop offset="1" stop-color="#F6F170" stop-opacity="0.5"/>
</linearGradient>
<linearGradient id="paint100_linear_2071_903" x1="95.2248" y1="145.853" x2="86.6157" y2="101.665" gradientUnits="userSpaceOnUse">
<stop offset="0.0192308" stop-color="#F6F170" stop-opacity="0"/>
<stop offset="1" stop-color="#F6F170" stop-opacity="0.5"/>
</linearGradient>
<linearGradient id="paint101_linear_2071_903" x1="95.2248" y1="145.853" x2="86.6157" y2="101.665" gradientUnits="userSpaceOnUse">
<stop offset="0.0192308" stop-color="#F6F170" stop-opacity="0"/>
<stop offset="1" stop-color="#F6F170" stop-opacity="0.5"/>
</linearGradient>
<linearGradient id="paint102_linear_2071_903" x1="95.2248" y1="145.853" x2="86.6157" y2="101.665" gradientUnits="userSpaceOnUse">
<stop offset="0.0192308" stop-color="#F6F170" stop-opacity="0"/>
<stop offset="1" stop-color="#F6F170" stop-opacity="0.5"/>
</linearGradient>
<linearGradient id="paint103_linear_2071_903" x1="95.2248" y1="145.853" x2="86.6157" y2="101.665" gradientUnits="userSpaceOnUse">
<stop offset="0.0192308" stop-color="#F6F170" stop-opacity="0"/>
<stop offset="1" stop-color="#F6F170" stop-opacity="0.5"/>
</linearGradient>
<linearGradient id="paint104_linear_2071_903" x1="95.2248" y1="145.853" x2="86.6157" y2="101.665" gradientUnits="userSpaceOnUse">
<stop offset="0.0192308" stop-color="#F6F170" stop-opacity="0"/>
<stop offset="1" stop-color="#F6F170" stop-opacity="0.5"/>
</linearGradient>
<linearGradient id="paint105_linear_2071_903" x1="95.2248" y1="145.853" x2="86.6157" y2="101.665" gradientUnits="userSpaceOnUse">
<stop offset="0.0192308" stop-color="#F6F170" stop-opacity="0"/>
<stop offset="1" stop-color="#F6F170" stop-opacity="0.5"/>
</linearGradient>
<linearGradient id="paint106_linear_2071_903" x1="95.2248" y1="145.853" x2="86.6157" y2="101.665" gradientUnits="userSpaceOnUse">
<stop offset="0.0192308" stop-color="#F6F170" stop-opacity="0"/>
<stop offset="1" stop-color="#F6F170" stop-opacity="0.5"/>
</linearGradient>
<linearGradient id="paint107_linear_2071_903" x1="95.2248" y1="145.853" x2="86.6157" y2="101.665" gradientUnits="userSpaceOnUse">
<stop offset="0.0192308" stop-color="#F6F170" stop-opacity="0"/>
<stop offset="1" stop-color="#F6F170" stop-opacity="0.5"/>
</linearGradient>
<linearGradient id="paint108_linear_2071_903" x1="95.2248" y1="145.853" x2="86.6157" y2="101.665" gradientUnits="userSpaceOnUse">
<stop offset="0.0192308" stop-color="#F6F170" stop-opacity="0"/>
<stop offset="1" stop-color="#F6F170" stop-opacity="0.5"/>
</linearGradient>
<linearGradient id="paint109_linear_2071_903" x1="95.2248" y1="145.853" x2="86.6157" y2="101.665" gradientUnits="userSpaceOnUse">
<stop offset="0.0192308" stop-color="#F6F170" stop-opacity="0"/>
<stop offset="1" stop-color="#F6F170" stop-opacity="0.5"/>
</linearGradient>
<linearGradient id="paint110_linear_2071_903" x1="95.2248" y1="145.853" x2="86.6157" y2="101.665" gradientUnits="userSpaceOnUse">
<stop offset="0.0192308" stop-color="#F6F170" stop-opacity="0"/>
<stop offset="1" stop-color="#F6F170" stop-opacity="0.5"/>
</linearGradient>
<linearGradient id="paint111_linear_2071_903" x1="95.2248" y1="145.853" x2="86.6157" y2="101.665" gradientUnits="userSpaceOnUse">
<stop offset="0.0192308" stop-color="#F6F170" stop-opacity="0"/>
<stop offset="1" stop-color="#F6F170" stop-opacity="0.5"/>
</linearGradient>
<linearGradient id="paint112_linear_2071_903" x1="95.2248" y1="145.853" x2="86.6157" y2="101.665" gradientUnits="userSpaceOnUse">
<stop offset="0.0192308" stop-color="#F6F170" stop-opacity="0"/>
<stop offset="1" stop-color="#F6F170" stop-opacity="0.5"/>
</linearGradient>
<linearGradient id="paint113_linear_2071_903" x1="95.2248" y1="145.853" x2="86.6157" y2="101.665" gradientUnits="userSpaceOnUse">
<stop offset="0.0192308" stop-color="#F6F170" stop-opacity="0"/>
<stop offset="1" stop-color="#F6F170" stop-opacity="0.5"/>
</linearGradient>
<linearGradient id="paint114_linear_2071_903" x1="95.2248" y1="145.853" x2="86.6157" y2="101.665" gradientUnits="userSpaceOnUse">
<stop offset="0.0192308" stop-color="#F6F170" stop-opacity="0"/>
<stop offset="1" stop-color="#F6F170" stop-opacity="0.5"/>
</linearGradient>
<linearGradient id="paint115_linear_2071_903" x1="95.2248" y1="145.853" x2="86.6157" y2="101.665" gradientUnits="userSpaceOnUse">
<stop offset="0.0192308" stop-color="#F6F170" stop-opacity="0"/>
<stop offset="1" stop-color="#F6F170" stop-opacity="0.5"/>
</linearGradient>
<linearGradient id="paint116_linear_2071_903" x1="95.2248" y1="145.853" x2="86.6157" y2="101.665" gradientUnits="userSpaceOnUse">
<stop offset="0.0192308" stop-color="#F6F170" stop-opacity="0"/>
<stop offset="1" stop-color="#F6F170" stop-opacity="0.5"/>
</linearGradient>
<linearGradient id="paint117_linear_2071_903" x1="95.2248" y1="145.853" x2="86.6157" y2="101.665" gradientUnits="userSpaceOnUse">
<stop offset="0.0192308" stop-color="#F6F170" stop-opacity="0"/>
<stop offset="1" stop-color="#F6F170" stop-opacity="0.5"/>
</linearGradient>
<linearGradient id="paint118_linear_2071_903" x1="95.2248" y1="145.853" x2="86.6157" y2="101.665" gradientUnits="userSpaceOnUse">
<stop offset="0.0192308" stop-color="#F6F170" stop-opacity="0"/>
<stop offset="1" stop-color="#F6F170" stop-opacity="0.5"/>
</linearGradient>
</defs>
</svg>
