<svg width="153" height="223" viewBox="0 0 153 223" fill="none" xmlns="http://www.w3.org/2000/svg">
<path fill-rule="evenodd" clip-rule="evenodd" d="M36.6914 42.0954C26.9602 46.2422 17.6276 54.4352 10.7467 64.8719C3.86569 75.3087 0 87.1343 0 97.7473V177.78C0 186.911 2.86172 194.501 8.04349 199.355C8.88424 200.142 9.78607 200.858 10.7467 201.496C17.6276 206.068 26.9602 206.307 36.6914 202.161L110.074 170.889C119.805 166.743 129.138 158.55 136.019 148.113C142.9 137.676 146.766 125.85 146.766 115.237V35.2048C146.766 26.0734 143.904 18.4833 138.722 13.6298C137.881 12.8423 136.979 12.1269 136.019 11.4886C129.138 6.91632 119.805 6.67731 110.074 10.8241L36.6914 42.0954ZM107.432 61.8262C107.812 62.0098 108.156 62.2469 108.461 62.5319C109.354 63.3681 109.91 64.6169 110.041 66.1368C110.217 68.1748 109.617 70.5336 108.372 72.6946L71.6803 136.35C71.0465 137.449 70.2656 138.462 69.3845 139.328C68.5034 140.195 67.5404 140.897 66.5532 141.392C65.5661 141.888 64.5753 142.166 63.6405 142.211C62.7056 142.256 61.8459 142.066 61.1132 141.653L39.0984 129.21C38.8354 129.055 38.5923 128.872 38.3704 128.665C37.3994 127.756 36.8322 126.364 36.7666 124.679C36.686 122.61 37.369 120.265 38.6677 118.153C39.9664 116.041 41.776 114.332 43.7042 113.397C45.6324 112.462 47.5238 112.377 48.9683 113.159L65.3107 122.401L97.1001 67.2536C98.346 65.0931 100.134 63.3077 102.072 62.29C104.009 61.2722 105.937 61.1054 107.432 61.8262Z" fill="url(#paint0_linear_2071_913)"/>
<path d="M141.485 153.23C134.604 163.667 125.271 171.86 115.54 176.007L110.074 170.89C119.805 166.743 129.138 158.55 136.019 148.113L141.485 153.23Z" fill="url(#paint1_linear_2071_913)"/>
<path d="M152.232 120.354C152.232 130.967 148.366 142.793 141.485 153.23L136.019 148.113C142.9 137.676 146.766 125.85 146.766 115.237L152.232 120.354Z" fill="url(#paint2_linear_2071_913)"/>
<path d="M115.54 176.007L42.1574 207.278L36.6914 202.161L110.074 170.89L115.54 176.007Z" fill="url(#paint3_linear_2071_913)"/>
<path d="M152.231 40.3222V120.355L146.765 115.238V35.2051L152.231 40.3222Z" fill="url(#paint4_linear_2071_913)"/>
<path d="M42.1573 207.278C32.4261 211.424 23.0935 211.185 16.2125 206.613L10.7466 201.496C17.6276 206.068 26.9602 206.307 36.6913 202.161L42.1573 207.278Z" fill="url(#paint5_linear_2071_913)"/>
<path d="M74.8504 144.446C75.7315 143.579 76.5124 142.566 77.1462 141.467L71.6802 136.35C71.0464 137.449 70.2655 138.462 69.3844 139.329L74.8504 144.446Z" fill="url(#paint6_linear_2071_913)"/>
<path d="M74.8504 144.446C75.7315 143.579 76.5124 142.566 77.1462 141.467L71.6802 136.35C71.0464 137.449 70.2655 138.462 69.3844 139.329L74.8504 144.446Z" fill="url(#paint7_linear_2071_913)"/>
<path d="M74.8504 144.446C75.7315 143.579 76.5124 142.566 77.1462 141.467L71.6802 136.35C71.0464 137.449 70.2655 138.462 69.3844 139.329L74.8504 144.446Z" fill="url(#paint8_linear_2071_913)"/>
<path d="M72.0192 146.51C73.0063 146.014 73.9694 145.312 74.8505 144.446L69.3845 139.329C68.5034 140.195 67.5403 140.897 66.5532 141.393L72.0192 146.51Z" fill="url(#paint9_linear_2071_913)"/>
<path d="M72.0192 146.51C73.0063 146.014 73.9694 145.312 74.8505 144.446L69.3845 139.329C68.5034 140.195 67.5403 140.897 66.5532 141.393L72.0192 146.51Z" fill="url(#paint10_linear_2071_913)"/>
<path d="M72.0192 146.51C73.0063 146.014 73.9694 145.312 74.8505 144.446L69.3845 139.329C68.5034 140.195 67.5403 140.897 66.5532 141.393L72.0192 146.51Z" fill="url(#paint11_linear_2071_913)"/>
<path d="M69.1065 147.328C70.0413 147.284 71.0321 147.005 72.0192 146.51L66.5533 141.393C65.5662 141.888 64.5754 142.166 63.6405 142.211L69.1065 147.328Z" fill="url(#paint12_linear_2071_913)"/>
<path d="M69.1065 147.328C70.0413 147.284 71.0321 147.005 72.0192 146.51L66.5533 141.393C65.5662 141.888 64.5754 142.166 63.6405 142.211L69.1065 147.328Z" fill="url(#paint13_linear_2071_913)"/>
<path d="M16.2126 206.613C15.252 205.975 14.3502 205.26 13.5094 204.472L8.05127 199.362C8.88979 200.147 9.78901 200.86 10.7466 201.496L16.2126 206.613Z" fill="url(#paint14_linear_2071_913)"/>
<path d="M66.5791 146.77C67.3119 147.183 68.1715 147.373 69.1064 147.328L63.6404 142.211C62.7055 142.256 61.8459 142.066 61.1132 141.653L66.5791 146.77Z" fill="url(#paint15_linear_2071_913)"/>
<path d="M66.5791 146.77C67.3119 147.183 68.1715 147.373 69.1064 147.328L63.6404 142.211C62.7055 142.256 61.8459 142.066 61.1132 141.653L66.5791 146.77Z" fill="url(#paint16_linear_2071_913)"/>
<path d="M66.5791 146.77C67.3119 147.183 68.1715 147.373 69.1064 147.328L63.6404 142.211C62.7055 142.256 61.8459 142.066 61.1132 141.653L66.5791 146.77Z" fill="url(#paint17_linear_2071_913)"/>
<path d="M77.214 141.552L113.905 77.8969L108.439 72.7798L71.748 136.435L77.214 141.552Z" fill="url(#paint18_linear_2071_913)"/>
<path d="M13.5095 204.472C8.32768 199.619 5.46596 192.029 5.46596 182.897L0 177.78C0 186.912 2.86172 194.502 8.04349 199.355L13.5095 204.472Z" fill="url(#paint19_linear_2071_913)"/>
<path d="M44.5641 134.327L66.5789 146.77L61.113 141.653L39.0981 129.209L44.5641 134.327Z" fill="url(#paint20_linear_2071_913)"/>
<path d="M113.838 77.8116C115.083 75.6506 115.683 73.2918 115.507 71.2538L110.041 66.1367C110.217 68.1747 109.617 70.5335 108.372 72.6945L113.838 77.8116Z" fill="#FDFAAB"/>
<path d="M115.507 71.2537C115.375 69.7338 114.82 68.485 113.927 67.6488L108.462 62.5332C109.355 63.3694 109.91 64.6176 110.041 66.1366L115.507 71.2537Z" fill="#FDFAAB"/>
<path d="M113.927 67.6494C113.622 67.3644 113.278 67.1273 112.898 66.9437L107.432 61.8267C107.812 62.0102 108.156 62.2473 108.461 62.5323L113.927 67.6494Z" fill="url(#paint21_linear_2071_913)"/>
<path d="M144.188 18.747C149.37 23.6004 152.231 31.1906 152.231 40.322L146.766 35.2049C146.766 26.0735 143.904 18.4834 138.722 13.6299L144.188 18.747Z" fill="url(#paint22_linear_2071_913)"/>
<path d="M112.898 66.9438C111.403 66.223 109.475 66.3898 107.538 67.4076L102.072 62.2905C104.009 61.2727 105.937 61.1059 107.432 61.8268L112.898 66.9438Z" fill="url(#paint23_linear_2071_913)"/>
<path d="M112.898 66.9438C111.403 66.223 109.475 66.3898 107.538 67.4076L102.072 62.2905C104.009 61.2727 105.937 61.1059 107.432 61.8268L112.898 66.9438Z" fill="url(#paint24_linear_2071_913)"/>
<path d="M107.538 67.4071C105.6 68.4249 103.812 70.2102 102.566 72.3708L97.1001 67.2537C98.346 65.0932 100.134 63.3078 102.072 62.29L107.538 67.4071Z" fill="url(#paint25_linear_2071_913)"/>
<path d="M107.538 67.4071C105.6 68.4249 103.812 70.2102 102.566 72.3708L97.1001 67.2537C98.346 65.0932 100.134 63.3078 102.072 62.29L107.538 67.4071Z" fill="url(#paint26_linear_2071_913)"/>
<path d="M43.8363 133.782C44.0583 133.989 44.3013 134.172 44.5643 134.327L39.0983 129.21C38.8354 129.055 38.5923 128.872 38.3704 128.665L43.8363 133.782Z" fill="url(#paint27_linear_2071_913)"/>
<path d="M43.8363 133.782C44.0583 133.989 44.3013 134.172 44.5643 134.327L39.0983 129.21C38.8354 129.055 38.5923 128.872 38.3704 128.665L43.8363 133.782Z" fill="url(#paint28_linear_2071_913)"/>
<path d="M42.2324 129.797C42.298 131.481 42.8648 132.872 43.835 133.781L38.3703 128.665C37.3993 127.756 36.8321 126.364 36.7665 124.68L42.2324 129.797Z" fill="url(#paint29_linear_2071_913)"/>
<path d="M42.2324 129.797C42.298 131.481 42.8648 132.872 43.835 133.781L38.3703 128.665C37.3993 127.756 36.8321 126.364 36.7665 124.68L42.2324 129.797Z" fill="url(#paint30_linear_2071_913)"/>
<path d="M44.1337 123.27C42.835 125.382 42.1519 127.727 42.2325 129.797L36.7665 124.68C36.6859 122.61 37.369 120.265 38.6677 118.153L44.1337 123.27Z" fill="url(#paint31_linear_2071_913)"/>
<path d="M44.1337 123.27C42.835 125.382 42.1519 127.727 42.2325 129.797L36.7665 124.68C36.6859 122.61 37.369 120.265 38.6677 118.153L44.1337 123.27Z" fill="url(#paint32_linear_2071_913)"/>
<path d="M141.485 16.6058C142.443 17.2422 143.342 17.9552 144.18 18.7398L138.722 13.63C137.881 12.8425 136.98 12.1271 136.019 11.4888L141.485 16.6058Z" fill="url(#paint33_linear_2071_913)"/>
<path d="M49.1701 118.515C47.2419 119.449 45.4323 121.158 44.1336 123.27L38.6676 118.153C39.9663 116.041 41.7759 114.332 43.7041 113.397L49.1701 118.515Z" fill="url(#paint34_linear_2071_913)"/>
<path d="M49.1701 118.515C47.2419 119.449 45.4323 121.158 44.1336 123.27L38.6676 118.153C39.9663 116.041 41.7759 114.332 43.7041 113.397L49.1701 118.515Z" fill="url(#paint35_linear_2071_913)"/>
<path d="M115.54 15.9412C125.271 11.7944 134.604 12.0334 141.485 16.6057L136.019 11.4886C129.138 6.91632 119.805 6.67731 110.074 10.8241L115.54 15.9412Z" fill="url(#paint36_linear_2071_913)"/>
<path d="M5.46596 182.897V102.865L0 97.7476V177.78L5.46596 182.897Z" fill="url(#paint37_linear_2071_913)"/>
<path d="M42.1574 47.2125L115.54 15.9413L110.074 10.8242L36.6914 42.0955L42.1574 47.2125Z" fill="url(#paint38_linear_2071_913)"/>
<path d="M5.46596 102.865C5.46596 92.2515 9.33165 80.4259 16.2126 69.9891L10.7467 64.8721C3.86569 75.3088 0 87.1345 0 97.7474L5.46596 102.865Z" fill="url(#paint39_linear_2071_913)"/>
<path d="M16.2125 69.9889C23.0935 59.5521 32.4261 51.3591 42.1573 47.2123L36.6913 42.0952C26.9602 46.242 17.6276 54.435 10.7466 64.8718L16.2125 69.9889Z" fill="url(#paint40_linear_2071_913)"/>
<path fill-rule="evenodd" clip-rule="evenodd" d="M42.0165 47.0262C32.2606 51.1836 22.9042 59.3928 16.0057 69.848C9.10722 80.3032 5.23169 92.1478 5.23169 102.776V182.925C5.23169 193.554 9.10722 202.095 16.0057 206.671C22.9042 211.247 32.2606 211.482 42.0165 207.325L115.586 175.974C125.342 171.816 134.698 163.607 141.597 153.152C148.495 142.697 152.371 130.852 152.371 120.224V40.0745C152.371 29.4461 148.495 20.9045 141.597 16.3287C134.698 11.753 125.342 11.518 115.586 15.6754L42.0165 47.0262ZM112.938 66.753C114.436 67.4754 115.376 69.0277 115.553 71.0686C115.73 73.1095 115.128 75.472 113.879 77.6367L77.0945 141.402C76.4591 142.502 75.6762 143.517 74.7929 144.386C73.9095 145.254 72.944 145.957 71.9544 146.454C70.9647 146.951 69.9714 147.23 69.0342 147.275C68.0969 147.321 67.2351 147.131 66.5005 146.718L44.4296 134.266C43.0126 133.433 42.1727 131.803 42.0919 129.731C42.0111 127.658 42.6959 125.309 43.9979 123.193C45.2999 121.078 47.1141 119.366 49.0472 118.429C50.9803 117.492 52.8765 117.405 54.3247 118.187L70.7087 127.436L102.579 72.193C103.828 70.0288 105.621 68.24 107.563 67.2198C109.506 66.1997 111.439 66.0318 112.938 66.753Z" fill="url(#paint41_linear_2071_913)"/>
<path d="M53.2505 117.611L70.2537 126.989L103.552 69.9662C105.346 67.1151 108.805 66.5898 110.051 66.5898C110.35 68.0905 109.615 70.4039 108.744 72.0296L71.5616 136.931C67.0773 143.084 62.6553 142.496 61.0983 141.62L42.227 130.929C41.6665 123.613 46.711 119.674 48.5794 118.549C50.0742 117.648 52.3163 117.423 53.2505 117.611Z" fill="url(#paint42_linear_2071_913)"/>
<path d="M53.1781 118.195L71.3836 126.24L103.682 70.5557C105.432 67.7651 109.028 67.0961 110.331 67.0344C110.71 68.4416 110.045 70.6703 109.205 72.2539L73.1942 135.596C68.7767 141.649 64.1244 141.311 62.4566 140.558L42.2384 131.361C41.3264 124.456 46.4285 120.474 48.3331 119.315C49.8568 118.388 52.1924 118.063 53.1781 118.195Z" fill="url(#paint43_linear_2071_913)"/>
<path d="M87.4276 155.079C83.0101 161.132 78.3578 160.794 76.69 160.041L62.4566 140.558C64.1244 141.311 68.7767 141.649 73.1942 135.596L87.4276 155.079Z" fill="url(#paint44_linear_2071_913)"/>
<path d="M76.69 160.041L56.4718 150.844L42.2384 131.361L62.4566 140.558L76.69 160.041Z" fill="url(#paint45_linear_2071_913)"/>
<path d="M67.4115 137.678L85.6169 145.723L71.3836 126.24L53.1781 118.195L67.4115 137.678Z" fill="url(#paint46_linear_2071_913)"/>
<path d="M123.438 91.7368L87.4276 155.079L73.1942 135.596L109.205 72.2539L123.438 91.7368Z" fill="url(#paint47_linear_2071_913)"/>
<path d="M56.4718 150.844C55.5599 143.939 60.6619 139.957 62.5665 138.798L48.3331 119.315C46.4285 120.474 41.3264 124.456 42.2384 131.361L56.4718 150.844Z" fill="url(#paint48_linear_2071_913)"/>
<path d="M85.6169 145.723L117.916 90.0386L103.682 70.5557L71.3836 126.24L85.6169 145.723Z" fill="url(#paint49_linear_2071_913)"/>
<path d="M62.5665 138.798C64.0902 137.87 66.4258 137.546 67.4115 137.678L53.1781 118.195C52.1924 118.063 49.8568 118.388 48.3331 119.315L62.5665 138.798Z" fill="url(#paint50_linear_2071_913)"/>
<path d="M124.564 86.5173C124.944 87.9245 124.278 90.1531 123.438 91.7368L109.205 72.2539C110.045 70.6703 110.71 68.4416 110.331 67.0344L124.564 86.5173Z" fill="url(#paint51_linear_2071_913)"/>
<path d="M117.916 90.0386C119.665 87.248 123.261 86.579 124.564 86.5173L110.331 67.0344C109.028 67.0961 105.432 67.7651 103.682 70.5557L117.916 90.0386Z" fill="url(#paint52_linear_2071_913)"/>
<path d="M67.4115 137.678L85.6169 145.723L117.916 90.0386C119.665 87.248 123.261 86.579 124.564 86.5173C124.944 87.9245 124.278 90.1531 123.438 91.7368L87.4276 155.079C83.0101 161.132 78.3578 160.794 76.69 160.041L56.4718 150.844C55.5599 143.939 60.6619 139.957 62.5665 138.798C64.0902 137.87 66.4258 137.546 67.4115 137.678Z" fill="url(#paint53_linear_2071_913)"/>
<path d="M67.4115 137.678L85.6169 145.723L117.916 90.0386C119.665 87.248 123.261 86.579 124.564 86.5173C124.944 87.9245 124.278 90.1531 123.438 91.7368L87.4276 155.079C83.0101 161.132 78.3578 160.794 76.69 160.041L56.4718 150.844C55.5599 143.939 60.6619 139.957 62.5665 138.798C64.0902 137.87 66.4258 137.546 67.4115 137.678Z" fill="url(#paint54_linear_2071_913)"/>
<defs>
<linearGradient id="paint0_linear_2071_913" x1="149.512" y1="85.5806" x2="11.7941" y2="131.448" gradientUnits="userSpaceOnUse">
<stop stop-color="#FDF882"/>
<stop offset="1" stop-color="#F6F170"/>
</linearGradient>
<linearGradient id="paint1_linear_2071_913" x1="110.244" y1="171.049" x2="133.726" y2="145.966" gradientUnits="userSpaceOnUse">
<stop stop-color="#040404"/>
<stop offset="0.5" stop-color="#1D1A19"/>
<stop offset="1" stop-color="#121110"/>
</linearGradient>
<linearGradient id="paint2_linear_2071_913" x1="125.614" y1="138.372" x2="147.035" y2="115.49" gradientUnits="userSpaceOnUse">
<stop stop-color="#121110"/>
<stop offset="1"/>
</linearGradient>
<linearGradient id="paint3_linear_2071_913" x1="49.9879" y1="214.609" x2="99.8644" y2="161.332" gradientUnits="userSpaceOnUse">
<stop stop-color="#040404"/>
<stop offset="1" stop-color="#040404"/>
</linearGradient>
<linearGradient id="paint4_linear_2071_913" x1="109.001" y1="79.884" x2="148.931" y2="37.2321" gradientUnits="userSpaceOnUse">
<stop/>
<stop offset="1"/>
</linearGradient>
<linearGradient id="paint5_linear_2071_913" x1="22.2327" y1="212.249" x2="34.0192" y2="199.659" gradientUnits="userSpaceOnUse">
<stop/>
<stop offset="0.5"/>
<stop offset="1" stop-color="#040404"/>
</linearGradient>
<linearGradient id="paint6_linear_2071_913" x1="70.7428" y1="140.6" x2="73.3012" y2="137.868" gradientUnits="userSpaceOnUse">
<stop stop-color="#221E1C"/>
<stop offset="0.5" stop-color="#181615"/>
<stop offset="1" stop-color="#0E0C0C"/>
</linearGradient>
<linearGradient id="paint7_linear_2071_913" x1="77.2914" y1="139.54" x2="70.4584" y2="142.472" gradientUnits="userSpaceOnUse">
<stop offset="1" stop-color="#E3A326"/>
</linearGradient>
<linearGradient id="paint8_linear_2071_913" x1="77.2914" y1="139.54" x2="70.4584" y2="142.472" gradientUnits="userSpaceOnUse">
<stop stop-color="#FDF882"/>
<stop offset="1" stop-color="#F6F170"/>
</linearGradient>
<linearGradient id="paint9_linear_2071_913" x1="68.5618" y1="143.273" x2="70.914" y2="140.761" gradientUnits="userSpaceOnUse">
<stop stop-color="#090808"/>
<stop offset="0.5" stop-color="#161413"/>
<stop offset="1" stop-color="#221E1C"/>
</linearGradient>
<linearGradient id="paint10_linear_2071_913" x1="75.0057" y1="142.158" x2="68.1813" y2="145.687" gradientUnits="userSpaceOnUse">
<stop stop-color="#E3A326"/>
</linearGradient>
<linearGradient id="paint11_linear_2071_913" x1="75.0057" y1="142.158" x2="68.1813" y2="145.687" gradientUnits="userSpaceOnUse">
<stop stop-color="#FDF882"/>
<stop offset="1" stop-color="#F6F170"/>
</linearGradient>
<linearGradient id="paint12_linear_2071_913" x1="72.176" y1="143.731" x2="65.9334" y2="147.675" gradientUnits="userSpaceOnUse">
<stop stop-color="#E3A326"/>
<stop offset="1" stop-color="#E3A326"/>
</linearGradient>
<linearGradient id="paint13_linear_2071_913" x1="72.176" y1="143.731" x2="65.9334" y2="147.675" gradientUnits="userSpaceOnUse">
<stop stop-color="#FDF882"/>
<stop offset="1" stop-color="#F6F170"/>
</linearGradient>
<linearGradient id="paint14_linear_2071_913" x1="11.0307" y1="202.152" x2="11.225" y2="201.944" gradientUnits="userSpaceOnUse">
<stop/>
<stop offset="0.5"/>
<stop offset="1"/>
</linearGradient>
<linearGradient id="paint15_linear_2071_913" x1="64.0361" y1="144.39" x2="64.9381" y2="143.426" gradientUnits="userSpaceOnUse">
<stop/>
<stop offset="0.5"/>
<stop offset="1"/>
</linearGradient>
<linearGradient id="paint16_linear_2071_913" x1="68.7586" y1="142.933" x2="63.5673" y2="147.264" gradientUnits="userSpaceOnUse">
<stop offset="0.26644" stop-color="#E3A326"/>
<stop offset="1" stop-color="#FFFDC8"/>
</linearGradient>
<linearGradient id="paint17_linear_2071_913" x1="69.256" y1="143.892" x2="63.2893" y2="147.649" gradientUnits="userSpaceOnUse">
<stop stop-color="#FDF882"/>
<stop offset="1" stop-color="#F6F170"/>
</linearGradient>
<linearGradient id="paint18_linear_2071_913" x1="110.798" y1="69.591" x2="123.048" y2="140.367" gradientUnits="userSpaceOnUse">
<stop stop-color="#FFFDC8"/>
<stop offset="1" stop-color="#FAF57A"/>
</linearGradient>
<linearGradient id="paint19_linear_2071_913" x1="7.9452" y1="193.059" x2="1.92266" y2="188.495" gradientUnits="userSpaceOnUse">
<stop stop-color="#D39213"/>
<stop offset="1" stop-color="#D39213"/>
</linearGradient>
<linearGradient id="paint20_linear_2071_913" x1="67.0932" y1="136.128" x2="47.8743" y2="149.589" gradientUnits="userSpaceOnUse">
<stop stop-color="#FDF882"/>
<stop offset="1" stop-color="#F6F170"/>
</linearGradient>
<linearGradient id="paint21_linear_2071_913" x1="114.048" y1="64.1207" x2="108.629" y2="66.826" gradientUnits="userSpaceOnUse">
<stop stop-color="#FDF882"/>
<stop offset="1" stop-color="#F6F170"/>
</linearGradient>
<linearGradient id="paint22_linear_2071_913" x1="136.684" y1="25.767" x2="143.691" y2="18.282" gradientUnits="userSpaceOnUse">
<stop/>
<stop offset="1"/>
</linearGradient>
<linearGradient id="paint23_linear_2071_913" x1="112.615" y1="64.0957" x2="104.994" y2="67.6305" gradientUnits="userSpaceOnUse">
<stop stop-color="#F6DF7F"/>
<stop offset="0.463276" stop-color="#F5D962"/>
<stop offset="1" stop-color="#E3A01D"/>
</linearGradient>
<linearGradient id="paint24_linear_2071_913" x1="113.101" y1="63.7579" x2="106.25" y2="69.2701" gradientUnits="userSpaceOnUse">
<stop stop-color="#FDF882"/>
<stop offset="1" stop-color="#F6F170"/>
</linearGradient>
<linearGradient id="paint25_linear_2071_913" x1="98.4508" y1="68.5182" x2="103.249" y2="63.3924" gradientUnits="userSpaceOnUse">
<stop stop-color="#0E0C0C"/>
<stop offset="0.5" stop-color="#231F1D"/>
<stop offset="1" stop-color="#0A0909"/>
</linearGradient>
<linearGradient id="paint26_linear_2071_913" x1="107.264" y1="66.827" x2="98.9318" y2="69.0532" gradientUnits="userSpaceOnUse">
<stop stop-color="#F6DF7F"/>
<stop offset="0.463276" stop-color="#F5D962"/>
<stop offset="1" stop-color="#E3A01D"/>
</linearGradient>
<linearGradient id="paint27_linear_2071_913" x1="40.6353" y1="130.785" x2="40.7034" y2="130.712" gradientUnits="userSpaceOnUse">
<stop/>
<stop offset="0.5"/>
<stop offset="1"/>
</linearGradient>
<linearGradient id="paint28_linear_2071_913" x1="44.6802" y1="130.895" x2="39.4719" y2="133.445" gradientUnits="userSpaceOnUse">
<stop stop-color="#FFFDC8"/>
<stop offset="1" stop-color="#E3A326"/>
</linearGradient>
<linearGradient id="paint29_linear_2071_913" x1="38.1178" y1="128.428" x2="39.3569" y2="127.105" gradientUnits="userSpaceOnUse">
<stop/>
<stop offset="0.5"/>
<stop offset="1"/>
</linearGradient>
<linearGradient id="paint30_linear_2071_913" x1="43.6511" y1="128.776" x2="37.8378" y2="129.941" gradientUnits="userSpaceOnUse">
<stop stop-color="#F6DF7F"/>
<stop offset="0.463276" stop-color="#F5D962"/>
<stop offset="1" stop-color="#E3A01D"/>
</linearGradient>
<linearGradient id="paint31_linear_2071_913" x1="36.2167" y1="124.165" x2="40.361" y2="119.738" gradientUnits="userSpaceOnUse">
<stop/>
<stop offset="0.5"/>
<stop offset="1" stop-color="#100E0E"/>
</linearGradient>
<linearGradient id="paint32_linear_2071_913" x1="43.9406" y1="123.393" x2="37.7979" y2="124.397" gradientUnits="userSpaceOnUse">
<stop stop-color="#F6DF7F"/>
<stop offset="0.463276" stop-color="#F5D962"/>
<stop offset="1" stop-color="#E3A01D"/>
</linearGradient>
<linearGradient id="paint33_linear_2071_913" x1="141.74" y1="15.2587" x2="136.714" y2="14.244" gradientUnits="userSpaceOnUse">
<stop stop-color="#FFFDC8"/>
<stop offset="1" stop-color="#F5F2A3"/>
</linearGradient>
<linearGradient id="paint34_linear_2071_913" x1="40.1455" y1="119.536" x2="44.8704" y2="114.489" gradientUnits="userSpaceOnUse">
<stop stop-color="#100E0E"/>
<stop offset="0.5" stop-color="#201D1B"/>
<stop offset="1" stop-color="#080707"/>
</linearGradient>
<linearGradient id="paint35_linear_2071_913" x1="48.8951" y1="117.841" x2="40.5416" y2="120.134" gradientUnits="userSpaceOnUse">
<stop stop-color="#F6DF7F"/>
<stop offset="0.463276" stop-color="#F5D962"/>
<stop offset="1" stop-color="#E3A01D"/>
</linearGradient>
<linearGradient id="paint36_linear_2071_913" x1="132.072" y1="12.4111" x2="117.877" y2="3.24679" gradientUnits="userSpaceOnUse">
<stop stop-color="#F5F2A3"/>
<stop offset="1" stop-color="#F5F05F"/>
</linearGradient>
<linearGradient id="paint37_linear_2071_913" x1="-2.00784" y1="180.459" x2="-14.2201" y2="177.719" gradientUnits="userSpaceOnUse">
<stop stop-color="#D39213"/>
<stop offset="0.537046" stop-color="#F3B335"/>
</linearGradient>
<linearGradient id="paint38_linear_2071_913" x1="91.9107" y1="29.7241" x2="49.1342" y2="35.5938" gradientUnits="userSpaceOnUse">
<stop stop-color="#F5F05F"/>
<stop offset="1" stop-color="#F3B335"/>
</linearGradient>
<linearGradient id="paint39_linear_2071_913" x1="11.4719" y1="84.1282" x2="1.2955" y2="83.6134" gradientUnits="userSpaceOnUse">
<stop stop-color="#F3B335"/>
<stop offset="1" stop-color="#F3B335"/>
</linearGradient>
<linearGradient id="paint40_linear_2071_913" x1="32.9725" y1="56.2329" x2="13.5522" y2="53.6401" gradientUnits="userSpaceOnUse">
<stop stop-color="#F3B335"/>
<stop offset="1" stop-color="#F3B335"/>
</linearGradient>
<linearGradient id="paint41_linear_2071_913" x1="148.518" y1="73.786" x2="17.6244" y2="108.267" gradientUnits="userSpaceOnUse">
<stop stop-color="#F6DF7F"/>
<stop offset="0.463276" stop-color="#F5D962"/>
<stop offset="1" stop-color="#E3A01D"/>
</linearGradient>
<linearGradient id="paint42_linear_2071_913" x1="100.896" y1="142.183" x2="47.7665" y2="120.462" gradientUnits="userSpaceOnUse">
<stop stop-color="#FFFDC8"/>
<stop offset="1" stop-color="#FAF57A"/>
</linearGradient>
<linearGradient id="paint43_linear_2071_913" x1="128.175" y1="100.166" x2="82.0722" y2="56.1021" gradientUnits="userSpaceOnUse">
<stop offset="0.0192308" stop-color="#F6F170" stop-opacity="0"/>
<stop offset="1" stop-color="#F6F170" stop-opacity="0.5"/>
</linearGradient>
<linearGradient id="paint44_linear_2071_913" x1="128.175" y1="100.166" x2="82.0722" y2="56.1021" gradientUnits="userSpaceOnUse">
<stop offset="0.0192308" stop-color="#F6F170" stop-opacity="0"/>
<stop offset="1" stop-color="#F6F170" stop-opacity="0.5"/>
</linearGradient>
<linearGradient id="paint45_linear_2071_913" x1="128.175" y1="100.166" x2="82.0722" y2="56.1021" gradientUnits="userSpaceOnUse">
<stop offset="0.0192308" stop-color="#F6F170" stop-opacity="0"/>
<stop offset="1" stop-color="#F6F170" stop-opacity="0.5"/>
</linearGradient>
<linearGradient id="paint46_linear_2071_913" x1="128.175" y1="100.166" x2="82.0722" y2="56.1021" gradientUnits="userSpaceOnUse">
<stop offset="0.0192308" stop-color="#F6F170" stop-opacity="0"/>
<stop offset="1" stop-color="#F6F170" stop-opacity="0.5"/>
</linearGradient>
<linearGradient id="paint47_linear_2071_913" x1="128.175" y1="100.166" x2="82.0722" y2="56.1021" gradientUnits="userSpaceOnUse">
<stop offset="0.0192308" stop-color="#F6F170" stop-opacity="0"/>
<stop offset="1" stop-color="#F6F170" stop-opacity="0.5"/>
</linearGradient>
<linearGradient id="paint48_linear_2071_913" x1="128.175" y1="100.166" x2="82.0722" y2="56.1021" gradientUnits="userSpaceOnUse">
<stop offset="0.0192308" stop-color="#F6F170" stop-opacity="0"/>
<stop offset="1" stop-color="#F6F170" stop-opacity="0.5"/>
</linearGradient>
<linearGradient id="paint49_linear_2071_913" x1="128.175" y1="100.166" x2="82.0722" y2="56.1021" gradientUnits="userSpaceOnUse">
<stop offset="0.0192308" stop-color="#F6F170" stop-opacity="0"/>
<stop offset="1" stop-color="#F6F170" stop-opacity="0.5"/>
</linearGradient>
<linearGradient id="paint50_linear_2071_913" x1="128.175" y1="100.166" x2="82.0722" y2="56.1021" gradientUnits="userSpaceOnUse">
<stop offset="0.0192308" stop-color="#F6F170" stop-opacity="0"/>
<stop offset="1" stop-color="#F6F170" stop-opacity="0.5"/>
</linearGradient>
<linearGradient id="paint51_linear_2071_913" x1="128.175" y1="100.166" x2="82.0722" y2="56.1021" gradientUnits="userSpaceOnUse">
<stop offset="0.0192308" stop-color="#F6F170" stop-opacity="0"/>
<stop offset="1" stop-color="#F6F170" stop-opacity="0.5"/>
</linearGradient>
<linearGradient id="paint52_linear_2071_913" x1="128.175" y1="100.166" x2="82.0722" y2="56.1021" gradientUnits="userSpaceOnUse">
<stop offset="0.0192308" stop-color="#F6F170" stop-opacity="0"/>
<stop offset="1" stop-color="#F6F170" stop-opacity="0.5"/>
</linearGradient>
<linearGradient id="paint53_linear_2071_913" x1="128.175" y1="100.166" x2="82.0722" y2="56.1021" gradientUnits="userSpaceOnUse">
<stop offset="0.0192308" stop-color="#F6F170" stop-opacity="0"/>
<stop offset="1" stop-color="#F6F170" stop-opacity="0.5"/>
</linearGradient>
<linearGradient id="paint54_linear_2071_913" x1="128.175" y1="100.166" x2="82.0722" y2="56.1021" gradientUnits="userSpaceOnUse">
<stop offset="0.0192308" stop-color="#F6F170" stop-opacity="0"/>
<stop offset="1" stop-color="#F6F170" stop-opacity="0.5"/>
</linearGradient>
</defs>
</svg>
